<?xml version="1.0" encoding="UTF-8" standalone="no"?>
<!DOCTYPE svg PUBLIC "-//W3C//DTD SVG 1.1//EN"
 "http://www.w3.org/Graphics/SVG/1.1/DTD/svg11.dtd">
<!-- Generated by graphviz version 5.0.0 (0)
 -->
<!-- Title: G Pages: 1 -->
<svg width="1541pt" height="658pt"
 viewBox="0.00 0.00 1541.00 657.50" xmlns="http://www.w3.org/2000/svg" xmlns:xlink="http://www.w3.org/1999/xlink">
<g id="graph0" class="graph" transform="scale(1 1) rotate(0) translate(4 653.5)">
<title>G</title>
<polygon fill="white" stroke="transparent" points="-4,4 -4,-653.5 1537,-653.5 1537,4 -4,4"/>
<g id="clust2" class="cluster">
<title>cluster_c830fabd</title>
<polygon fill="none" stroke="black" stroke-dasharray="1,5" points="63,-114.5 63,-641.5 1525,-641.5 1525,-114.5 63,-114.5"/>
<text text-anchor="middle" x="794" y="-626.3" font-family="Times,serif" font-size="14.00">File: include_generate_view_visual_id</text>
</g>
<!-- Legend -->
<g id="node1" class="node">
<title>Legend</title>
<polygon fill="none" stroke="black" points="1.5,-88.5 1.5,-105.5 266.5,-105.5 266.5,-88.5 1.5,-88.5"/>
<text text-anchor="start" x="81.5" y="-93.3" font-family="Times,serif" font-size="14.00">Code2flow Legend</text>
<polygon fill="none" stroke="black" points="1.5,-0.5 1.5,-88.5 266.5,-88.5 266.5,-0.5 1.5,-0.5"/>
<polygon fill="none" stroke="black" points="3.5,-65.5 3.5,-86.5 214.5,-86.5 214.5,-65.5 3.5,-65.5"/>
<text text-anchor="start" x="63" y="-72.3" font-family="Times,serif" font-size="14.00">Regular function</text>
<polygon fill="#cccccc" stroke="transparent" points="214.5,-65.5 214.5,-86.5 264.5,-86.5 264.5,-65.5 214.5,-65.5"/>
<polygon fill="none" stroke="black" points="214.5,-65.5 214.5,-86.5 264.5,-86.5 264.5,-65.5 214.5,-65.5"/>
<polygon fill="none" stroke="black" points="3.5,-44.5 3.5,-65.5 214.5,-65.5 214.5,-44.5 3.5,-44.5"/>
<text text-anchor="start" x="15" y="-51.3" font-family="Times,serif" font-size="14.00">Trunk function (nothing calls this)</text>
<polygon fill="#966f33" stroke="transparent" points="214.5,-44.5 214.5,-65.5 264.5,-65.5 264.5,-44.5 214.5,-44.5"/>
<polygon fill="none" stroke="black" points="214.5,-44.5 214.5,-65.5 264.5,-65.5 264.5,-44.5 214.5,-44.5"/>
<polygon fill="none" stroke="black" points="3.5,-23.5 3.5,-44.5 214.5,-44.5 214.5,-23.5 3.5,-23.5"/>
<text text-anchor="start" x="6.5" y="-30.3" font-family="Times,serif" font-size="14.00">Leaf function (this calls nothing else)</text>
<polygon fill="#6db33f" stroke="transparent" points="214.5,-23.5 214.5,-44.5 264.5,-44.5 264.5,-23.5 214.5,-23.5"/>
<polygon fill="none" stroke="black" points="214.5,-23.5 214.5,-44.5 264.5,-44.5 264.5,-23.5 214.5,-23.5"/>
<polygon fill="none" stroke="black" points="3.5,-2.5 3.5,-23.5 214.5,-23.5 214.5,-2.5 3.5,-2.5"/>
<text text-anchor="start" x="73" y="-9.3" font-family="Times,serif" font-size="14.00">Function call</text>
<polygon fill="none" stroke="black" points="214.5,-2.5 214.5,-23.5 264.5,-23.5 264.5,-2.5 214.5,-2.5"/>
<text text-anchor="start" x="232" y="-9.3" font-family="Times,serif" font-size="14.00">→</text>
<polygon fill="none" stroke="black" points="2.5,-1.5 2.5,-87.5 265.5,-87.5 265.5,-1.5 2.5,-1.5"/>
<polygon fill="none" stroke="black" points="0,0 0,-107 267,-107 267,0 0,0"/>
</g>
<!-- node_b6fc72d4 -->
<g id="node2" class="node">
<title>node_b6fc72d4</title>
<path fill="#6db33f" stroke="black" d="M1319,-374.5C1319,-374.5 1205,-374.5 1205,-374.5 1199,-374.5 1193,-368.5 1193,-362.5 1193,-362.5 1193,-350.5 1193,-350.5 1193,-344.5 1199,-338.5 1205,-338.5 1205,-338.5 1319,-338.5 1319,-338.5 1325,-338.5 1331,-344.5 1331,-350.5 1331,-350.5 1331,-362.5 1331,-362.5 1331,-368.5 1325,-374.5 1319,-374.5"/>
<text text-anchor="middle" x="1262" y="-352.8" font-family="Times,serif" font-size="14.00">362: addVisualChild()</text>
</g>
<!-- node_9f6cc4d5 -->
<g id="node3" class="node">
<title>node_9f6cc4d5</title>
<path fill="#cccccc" stroke="black" d="M1327,-320.5C1327,-320.5 1197,-320.5 1197,-320.5 1191,-320.5 1185,-314.5 1185,-308.5 1185,-308.5 1185,-296.5 1185,-296.5 1185,-290.5 1191,-284.5 1197,-284.5 1197,-284.5 1327,-284.5 1327,-284.5 1333,-284.5 1339,-290.5 1339,-296.5 1339,-296.5 1339,-308.5 1339,-308.5 1339,-314.5 1333,-320.5 1327,-320.5"/>
<text text-anchor="middle" x="1262" y="-298.8" font-family="Times,serif" font-size="14.00">343: addVisualElement()</text>
</g>
<!-- node_54e10289 -->
<g id="node15" class="node">
<title>node_54e10289</title>
<path fill="#6db33f" stroke="black" d="M1505,-320.5C1505,-320.5 1408,-320.5 1408,-320.5 1402,-320.5 1396,-314.5 1396,-308.5 1396,-308.5 1396,-296.5 1396,-296.5 1396,-290.5 1402,-284.5 1408,-284.5 1408,-284.5 1505,-284.5 1505,-284.5 1511,-284.5 1517,-290.5 1517,-296.5 1517,-296.5 1517,-308.5 1517,-308.5 1517,-314.5 1511,-320.5 1505,-320.5"/>
<text text-anchor="middle" x="1456.5" y="-298.8" font-family="Times,serif" font-size="14.00">435: findOnView()</text>
</g>
<!-- node_9f6cc4d5&#45;&gt;node_54e10289 -->
<g id="edge1" class="edge">
<title>node_9f6cc4d5&#45;&gt;node_54e10289</title>
<path fill="none" stroke="#0072b2" stroke-width="2" d="M1339.15,-302.5C1339.15,-302.5 1385.94,-302.5 1385.94,-302.5"/>
<polygon fill="#0072b2" stroke="#0072b2" stroke-width="2" points="1385.94,-306 1395.94,-302.5 1385.94,-299 1385.94,-306"/>
</g>
<!-- node_da01b34c -->
<g id="node4" class="node">
<title>node_da01b34c</title>
<path fill="#cccccc" stroke="black" d="M1099.5,-374.5C1099.5,-374.5 959.5,-374.5 959.5,-374.5 953.5,-374.5 947.5,-368.5 947.5,-362.5 947.5,-362.5 947.5,-350.5 947.5,-350.5 947.5,-344.5 953.5,-338.5 959.5,-338.5 959.5,-338.5 1099.5,-338.5 1099.5,-338.5 1105.5,-338.5 1111.5,-344.5 1111.5,-350.5 1111.5,-350.5 1111.5,-362.5 1111.5,-362.5 1111.5,-368.5 1105.5,-374.5 1099.5,-374.5"/>
<text text-anchor="middle" x="1029.5" y="-352.8" font-family="Times,serif" font-size="14.00">320: addVisualNestedRel()</text>
</g>
<!-- node_da01b34c&#45;&gt;node_b6fc72d4 -->
<g id="edge2" class="edge">
<title>node_da01b34c&#45;&gt;node_b6fc72d4</title>
<path fill="none" stroke="#f0e442" stroke-width="2" d="M1111.8,-362.5C1111.8,-362.5 1182.89,-362.5 1182.89,-362.5"/>
<polygon fill="#f0e442" stroke="#f0e442" stroke-width="2" points="1182.89,-366 1192.89,-362.5 1182.89,-359 1182.89,-366"/>
</g>
<!-- node_da01b34c&#45;&gt;node_9f6cc4d5 -->
<g id="edge3" class="edge">
<title>node_da01b34c&#45;&gt;node_9f6cc4d5</title>
<path fill="none" stroke="#f0e442" stroke-width="2" d="M1111.59,-350.5C1150.67,-350.5 1189,-350.5 1189,-350.5 1189,-350.5 1189,-330.65 1189,-330.65"/>
<polygon fill="#f0e442" stroke="#f0e442" stroke-width="2" points="1192.5,-330.65 1189,-320.65 1185.5,-330.65 1192.5,-330.65"/>
</g>
<!-- node_da01b34c&#45;&gt;node_54e10289 -->
<g id="edge4" class="edge">
<title>node_da01b34c&#45;&gt;node_54e10289</title>
<path fill="none" stroke="#f0e442" stroke-width="2" d="M1030,-338.34C1030,-333.46 1030,-329.5 1030,-329.5 1030,-329.5 1437,-329.5 1437,-329.5 1437,-329.5 1437,-328.62 1437,-328.62"/>
<polygon fill="#f0e442" stroke="#f0e442" stroke-width="2" points="1440.5,-330.66 1437,-320.66 1433.5,-330.66 1440.5,-330.66"/>
</g>
<!-- node_a113a166 -->
<g id="node5" class="node">
<title>node_a113a166</title>
<path fill="#cccccc" stroke="black" d="M661,-212.5C661,-212.5 531,-212.5 531,-212.5 525,-212.5 519,-206.5 519,-200.5 519,-200.5 519,-188.5 519,-188.5 519,-182.5 525,-176.5 531,-176.5 531,-176.5 661,-176.5 661,-176.5 667,-176.5 673,-182.5 673,-188.5 673,-188.5 673,-200.5 673,-200.5 673,-206.5 667,-212.5 661,-212.5"/>
<text text-anchor="middle" x="596" y="-190.8" font-family="Times,serif" font-size="14.00">385: addVisualRelation()</text>
</g>
<!-- node_a113a166&#45;&gt;node_54e10289 -->
<g id="edge5" class="edge">
<title>node_a113a166&#45;&gt;node_54e10289</title>
<path fill="none" stroke="#d55e00" stroke-width="2" d="M673.17,-194.5C884.5,-194.5 1457,-194.5 1457,-194.5 1457,-194.5 1457,-274.18 1457,-274.18"/>
<polygon fill="#d55e00" stroke="#d55e00" stroke-width="2" points="1453.5,-274.18 1457,-284.18 1460.5,-274.18 1453.5,-274.18"/>
</g>
<!-- node_87d86d33 -->
<g id="node29" class="node">
<title>node_87d86d33</title>
<path fill="#6db33f" stroke="black" d="M844,-249.5C844,-249.5 770,-249.5 770,-249.5 764,-249.5 758,-243.5 758,-237.5 758,-237.5 758,-225.5 758,-225.5 758,-219.5 764,-213.5 770,-213.5 770,-213.5 844,-213.5 844,-213.5 850,-213.5 856,-219.5 856,-225.5 856,-225.5 856,-237.5 856,-237.5 856,-243.5 850,-249.5 844,-249.5"/>
<text text-anchor="middle" x="807" y="-227.8" font-family="Times,serif" font-size="14.00">423: printRel()</text>
</g>
<!-- node_a113a166&#45;&gt;node_87d86d33 -->
<g id="edge6" class="edge">
<title>node_a113a166&#45;&gt;node_87d86d33</title>
<path fill="none" stroke="#d55e00" stroke-width="2" d="M667,-212.69C667,-217.8 667,-222 667,-222 667,-222 747.64,-222 747.64,-222"/>
<polygon fill="#d55e00" stroke="#d55e00" stroke-width="2" points="747.64,-225.5 757.64,-222 747.64,-218.5 747.64,-225.5"/>
</g>
<!-- node_468d7072 -->
<g id="node6" class="node">
<title>node_468d7072</title>
<path fill="#cccccc" stroke="black" d="M645,-448.5C645,-448.5 547,-448.5 547,-448.5 541,-448.5 535,-442.5 535,-436.5 535,-436.5 535,-424.5 535,-424.5 535,-418.5 541,-412.5 547,-412.5 547,-412.5 645,-412.5 645,-412.5 651,-412.5 657,-418.5 657,-424.5 657,-424.5 657,-436.5 657,-436.5 657,-442.5 651,-448.5 645,-448.5"/>
<text text-anchor="middle" x="596" y="-426.8" font-family="Times,serif" font-size="14.00">643: applyLayout()</text>
</g>
<!-- node_c28b4ed3 -->
<g id="node11" class="node">
<title>node_c28b4ed3</title>
<path fill="#cccccc" stroke="black" d="M866,-557.5C866,-557.5 748,-557.5 748,-557.5 742,-557.5 736,-551.5 736,-545.5 736,-545.5 736,-533.5 736,-533.5 736,-527.5 742,-521.5 748,-521.5 748,-521.5 866,-521.5 866,-521.5 872,-521.5 878,-527.5 878,-533.5 878,-533.5 878,-545.5 878,-545.5 878,-551.5 872,-557.5 866,-557.5"/>
<text text-anchor="middle" x="807" y="-535.8" font-family="Times,serif" font-size="14.00">754: drawBendpoints()</text>
</g>
<!-- node_468d7072&#45;&gt;node_c28b4ed3 -->
<g id="edge10" class="edge">
<title>node_468d7072&#45;&gt;node_c28b4ed3</title>
<path fill="none" stroke="#56b4e9" stroke-width="2" d="M657.19,-439.5C669.63,-439.5 679,-439.5 679,-439.5 679,-439.5 679,-539 679,-539 679,-539 725.89,-539 725.89,-539"/>
<polygon fill="#56b4e9" stroke="#56b4e9" stroke-width="2" points="725.89,-542.5 735.89,-539 725.89,-535.5 725.89,-542.5"/>
</g>
<!-- node_5bf3ac32 -->
<g id="node19" class="node">
<title>node_5bf3ac32</title>
<path fill="#cccccc" stroke="black" d="M1097.5,-448.5C1097.5,-448.5 961.5,-448.5 961.5,-448.5 955.5,-448.5 949.5,-442.5 949.5,-436.5 949.5,-436.5 949.5,-424.5 949.5,-424.5 949.5,-418.5 955.5,-412.5 961.5,-412.5 961.5,-412.5 1097.5,-412.5 1097.5,-412.5 1103.5,-412.5 1109.5,-418.5 1109.5,-424.5 1109.5,-424.5 1109.5,-436.5 1109.5,-436.5 1109.5,-442.5 1103.5,-448.5 1097.5,-448.5"/>
<text text-anchor="middle" x="1029.5" y="-426.8" font-family="Times,serif" font-size="14.00">698: getElementPosition()</text>
</g>
<!-- node_468d7072&#45;&gt;node_5bf3ac32 -->
<g id="edge11" class="edge">
<title>node_468d7072&#45;&gt;node_5bf3ac32</title>
<path fill="none" stroke="#56b4e9" stroke-width="2" d="M657.19,-421.5C657.19,-421.5 939.47,-421.5 939.47,-421.5"/>
<polygon fill="#56b4e9" stroke="#56b4e9" stroke-width="2" points="939.47,-425 949.47,-421.5 939.47,-418 939.47,-425"/>
</g>
<!-- node_57381b58 -->
<g id="node26" class="node">
<title>node_57381b58</title>
<path fill="#cccccc" stroke="black" d="M883,-485.5C883,-485.5 731,-485.5 731,-485.5 725,-485.5 719,-479.5 719,-473.5 719,-473.5 719,-461.5 719,-461.5 719,-455.5 725,-449.5 731,-449.5 731,-449.5 883,-449.5 883,-449.5 889,-449.5 895,-455.5 895,-461.5 895,-461.5 895,-473.5 895,-473.5 895,-479.5 889,-485.5 883,-485.5"/>
<text text-anchor="middle" x="807" y="-463.8" font-family="Times,serif" font-size="14.00">679: layoutNestedElements()</text>
</g>
<!-- node_468d7072&#45;&gt;node_57381b58 -->
<g id="edge12" class="edge">
<title>node_468d7072&#45;&gt;node_57381b58</title>
<path fill="none" stroke="#56b4e9" stroke-width="2" d="M657.1,-430.5C690.44,-430.5 725,-430.5 725,-430.5 725,-430.5 725,-439.43 725,-439.43"/>
<polygon fill="#56b4e9" stroke="#56b4e9" stroke-width="2" points="721.5,-439.43 725,-449.43 728.5,-439.43 721.5,-439.43"/>
</g>
<!-- node_c0e741ff -->
<g id="node7" class="node">
<title>node_c0e741ff</title>
<path fill="#6db33f" stroke="black" d="M1083,-556.5C1083,-556.5 976,-556.5 976,-556.5 970,-556.5 964,-550.5 964,-544.5 964,-544.5 964,-532.5 964,-532.5 964,-526.5 970,-520.5 976,-520.5 976,-520.5 1083,-520.5 1083,-520.5 1089,-520.5 1095,-526.5 1095,-532.5 1095,-532.5 1095,-544.5 1095,-544.5 1095,-550.5 1089,-556.5 1083,-556.5"/>
<text text-anchor="middle" x="1029.5" y="-534.8" font-family="Times,serif" font-size="14.00">779: calcBendpoint()</text>
</g>
<!-- node_8ba303e7 -->
<g id="node8" class="node">
<title>node_8ba303e7</title>
<path fill="#6db33f" stroke="black" d="M1332.5,-475.5C1332.5,-475.5 1191.5,-475.5 1191.5,-475.5 1185.5,-475.5 1179.5,-469.5 1179.5,-463.5 1179.5,-463.5 1179.5,-451.5 1179.5,-451.5 1179.5,-445.5 1185.5,-439.5 1191.5,-439.5 1191.5,-439.5 1332.5,-439.5 1332.5,-439.5 1338.5,-439.5 1344.5,-445.5 1344.5,-451.5 1344.5,-451.5 1344.5,-463.5 1344.5,-463.5 1344.5,-469.5 1338.5,-475.5 1332.5,-475.5"/>
<text text-anchor="middle" x="1262" y="-453.8" font-family="Times,serif" font-size="14.00">733: calcElementPosition()</text>
</g>
<!-- node_ce3dec1b -->
<g id="node9" class="node">
<title>node_ce3dec1b</title>
<path fill="#6db33f" stroke="black" d="M654,-158.5C654,-158.5 538,-158.5 538,-158.5 532,-158.5 526,-152.5 526,-146.5 526,-146.5 526,-134.5 526,-134.5 526,-128.5 532,-122.5 538,-122.5 538,-122.5 654,-122.5 654,-122.5 660,-122.5 666,-128.5 666,-134.5 666,-134.5 666,-146.5 666,-146.5 666,-152.5 660,-158.5 654,-158.5"/>
<text text-anchor="middle" x="596" y="-136.8" font-family="Times,serif" font-size="14.00">627: calculateLayout()</text>
</g>
<!-- node_74c045f8 -->
<g id="node10" class="node">
<title>node_74c045f8</title>
<path fill="#6db33f" stroke="black" d="M435.5,-158.5C435.5,-158.5 340.5,-158.5 340.5,-158.5 334.5,-158.5 328.5,-152.5 328.5,-146.5 328.5,-146.5 328.5,-134.5 328.5,-134.5 328.5,-128.5 334.5,-122.5 340.5,-122.5 340.5,-122.5 435.5,-122.5 435.5,-122.5 441.5,-122.5 447.5,-128.5 447.5,-134.5 447.5,-134.5 447.5,-146.5 447.5,-146.5 447.5,-152.5 441.5,-158.5 435.5,-158.5"/>
<text text-anchor="middle" x="388" y="-136.8" font-family="Times,serif" font-size="14.00">611: createGraph()</text>
</g>
<!-- node_c28b4ed3&#45;&gt;node_c0e741ff -->
<g id="edge13" class="edge">
<title>node_c28b4ed3&#45;&gt;node_c0e741ff</title>
<path fill="none" stroke="#009e73" stroke-width="2" d="M878.01,-533.17C878.01,-533.17 953.69,-533.17 953.69,-533.17"/>
<polygon fill="#009e73" stroke="#009e73" stroke-width="2" points="953.69,-536.67 963.69,-533.17 953.69,-529.67 953.69,-536.67"/>
</g>
<!-- node_4ef9fffa -->
<g id="node17" class="node">
<title>node_4ef9fffa</title>
<path fill="#cccccc" stroke="black" d="M1091,-610.5C1091,-610.5 968,-610.5 968,-610.5 962,-610.5 956,-604.5 956,-598.5 956,-598.5 956,-586.5 956,-586.5 956,-580.5 962,-574.5 968,-574.5 968,-574.5 1091,-574.5 1091,-574.5 1097,-574.5 1103,-580.5 1103,-586.5 1103,-586.5 1103,-598.5 1103,-598.5 1103,-604.5 1097,-610.5 1091,-610.5"/>
<text text-anchor="middle" x="1029.5" y="-588.8" font-family="Times,serif" font-size="14.00">794: getCenterBounds()</text>
</g>
<!-- node_c28b4ed3&#45;&gt;node_4ef9fffa -->
<g id="edge14" class="edge">
<title>node_c28b4ed3&#45;&gt;node_4ef9fffa</title>
<path fill="none" stroke="#009e73" stroke-width="2" d="M878.13,-544.83C918.08,-544.83 960,-544.83 960,-544.83 960,-544.83 960,-564.48 960,-564.48"/>
<polygon fill="#009e73" stroke="#009e73" stroke-width="2" points="956.5,-564.48 960,-574.48 963.5,-564.48 956.5,-564.48"/>
</g>
<!-- node_b92d1882 -->
<g id="node12" class="node">
<title>node_b92d1882</title>
<path fill="#cccccc" stroke="black" d="M444.5,-212.5C444.5,-212.5 331.5,-212.5 331.5,-212.5 325.5,-212.5 319.5,-206.5 319.5,-200.5 319.5,-200.5 319.5,-188.5 319.5,-188.5 319.5,-182.5 325.5,-176.5 331.5,-176.5 331.5,-176.5 444.5,-176.5 444.5,-176.5 450.5,-176.5 456.5,-182.5 456.5,-188.5 456.5,-188.5 456.5,-200.5 456.5,-200.5 456.5,-206.5 450.5,-212.5 444.5,-212.5"/>
<text text-anchor="middle" x="388" y="-190.8" font-family="Times,serif" font-size="14.00">179: drawCollection()</text>
</g>
<!-- node_b92d1882&#45;&gt;node_9f6cc4d5 -->
<g id="edge16" class="edge">
<title>node_b92d1882&#45;&gt;node_9f6cc4d5</title>
<path fill="none" stroke="#56b4e9" stroke-width="2" d="M451,-176.34C451,-171.46 451,-167.5 451,-167.5 451,-167.5 1262,-167.5 1262,-167.5 1262,-167.5 1262,-274.29 1262,-274.29"/>
<polygon fill="#56b4e9" stroke="#56b4e9" stroke-width="2" points="1258.5,-274.29 1262,-284.29 1265.5,-274.29 1258.5,-274.29"/>
</g>
<!-- node_b92d1882&#45;&gt;node_a113a166 -->
<g id="edge19" class="edge">
<title>node_b92d1882&#45;&gt;node_a113a166</title>
<path fill="none" stroke="#56b4e9" stroke-width="2" d="M456.68,-182.5C456.68,-182.5 508.76,-182.5 508.76,-182.5"/>
<polygon fill="#56b4e9" stroke="#56b4e9" stroke-width="2" points="508.76,-186 518.76,-182.5 508.76,-179 508.76,-186"/>
</g>
<!-- node_b92d1882&#45;&gt;node_468d7072 -->
<g id="edge20" class="edge">
<title>node_b92d1882&#45;&gt;node_468d7072</title>
<path fill="none" stroke="#56b4e9" stroke-width="2" d="M456.7,-194.5C475.6,-194.5 491,-194.5 491,-194.5 491,-194.5 491,-417.83 491,-417.83 491,-417.83 524.92,-417.83 524.92,-417.83"/>
<polygon fill="#56b4e9" stroke="#56b4e9" stroke-width="2" points="524.92,-421.33 534.92,-417.83 524.92,-414.33 524.92,-421.33"/>
</g>
<!-- node_b92d1882&#45;&gt;node_ce3dec1b -->
<g id="edge21" class="edge">
<title>node_b92d1882&#45;&gt;node_ce3dec1b</title>
<path fill="none" stroke="#56b4e9" stroke-width="2" d="M454,-176.22C454,-160.55 454,-140.5 454,-140.5 454,-140.5 515.83,-140.5 515.83,-140.5"/>
<polygon fill="#56b4e9" stroke="#56b4e9" stroke-width="2" points="515.83,-144 525.83,-140.5 515.83,-137 515.83,-144"/>
</g>
<!-- node_e6944dcd -->
<g id="node13" class="node">
<title>node_e6944dcd</title>
<path fill="#cccccc" stroke="black" d="M671,-394.5C671,-394.5 521,-394.5 521,-394.5 515,-394.5 509,-388.5 509,-382.5 509,-382.5 509,-370.5 509,-370.5 509,-364.5 515,-358.5 521,-358.5 521,-358.5 671,-358.5 671,-358.5 677,-358.5 683,-364.5 683,-370.5 683,-370.5 683,-382.5 683,-382.5 683,-388.5 677,-394.5 671,-394.5"/>
<text text-anchor="middle" x="596" y="-372.8" font-family="Times,serif" font-size="14.00">253: drawNestedCollection()</text>
</g>
<!-- node_b92d1882&#45;&gt;node_e6944dcd -->
<g id="edge22" class="edge">
<title>node_b92d1882&#45;&gt;node_e6944dcd</title>
<path fill="none" stroke="#56b4e9" stroke-width="2" d="M456.53,-188.5C486.08,-188.5 514,-188.5 514,-188.5 514,-188.5 514,-348.47 514,-348.47"/>
<polygon fill="#56b4e9" stroke="#56b4e9" stroke-width="2" points="510.5,-348.47 514,-358.47 517.5,-348.47 510.5,-348.47"/>
</g>
<!-- node_cad33c93 -->
<g id="node28" class="node">
<title>node_cad33c93</title>
<path fill="#6db33f" stroke="black" d="M638.5,-266.5C638.5,-266.5 553.5,-266.5 553.5,-266.5 547.5,-266.5 541.5,-260.5 541.5,-254.5 541.5,-254.5 541.5,-242.5 541.5,-242.5 541.5,-236.5 547.5,-230.5 553.5,-230.5 553.5,-230.5 638.5,-230.5 638.5,-230.5 644.5,-230.5 650.5,-236.5 650.5,-242.5 650.5,-242.5 650.5,-254.5 650.5,-254.5 650.5,-260.5 644.5,-266.5 638.5,-266.5"/>
<text text-anchor="middle" x="596" y="-244.8" font-family="Times,serif" font-size="14.00">820: openView()</text>
</g>
<!-- node_b92d1882&#45;&gt;node_cad33c93 -->
<g id="edge23" class="edge">
<title>node_b92d1882&#45;&gt;node_cad33c93</title>
<path fill="none" stroke="#56b4e9" stroke-width="2" d="M456.75,-200.5C462.4,-200.5 466,-200.5 466,-200.5 466,-200.5 466,-248.5 466,-248.5 466,-248.5 531.25,-248.5 531.25,-248.5"/>
<polygon fill="#56b4e9" stroke="#56b4e9" stroke-width="2" points="531.25,-252 541.25,-248.5 531.25,-245 531.25,-252"/>
</g>
<!-- node_d717edb1 -->
<g id="node33" class="node">
<title>node_d717edb1</title>
<path fill="#6db33f" stroke="black" d="M649,-320.5C649,-320.5 543,-320.5 543,-320.5 537,-320.5 531,-314.5 531,-308.5 531,-308.5 531,-296.5 531,-296.5 531,-290.5 537,-284.5 543,-284.5 543,-284.5 649,-284.5 649,-284.5 655,-284.5 661,-290.5 661,-296.5 661,-296.5 661,-308.5 661,-308.5 661,-314.5 655,-320.5 649,-320.5"/>
<text text-anchor="middle" x="596" y="-298.8" font-family="Times,serif" font-size="14.00">225: sortCollection()</text>
</g>
<!-- node_b92d1882&#45;&gt;node_d717edb1 -->
<g id="edge24" class="edge">
<title>node_b92d1882&#45;&gt;node_d717edb1</title>
<path fill="none" stroke="#56b4e9" stroke-width="2" d="M456.65,-206.5C459.39,-206.5 461,-206.5 461,-206.5 461,-206.5 461,-302.5 461,-302.5 461,-302.5 520.87,-302.5 520.87,-302.5"/>
<polygon fill="#56b4e9" stroke="#56b4e9" stroke-width="2" points="520.87,-306 530.87,-302.5 520.87,-299 520.87,-306"/>
</g>
<!-- node_b43bcee5 -->
<g id="node30" class="node">
<title>node_b43bcee5</title>
<path fill="#cccccc" stroke="black" d="M867.5,-393.5C867.5,-393.5 746.5,-393.5 746.5,-393.5 740.5,-393.5 734.5,-387.5 734.5,-381.5 734.5,-381.5 734.5,-369.5 734.5,-369.5 734.5,-363.5 740.5,-357.5 746.5,-357.5 746.5,-357.5 867.5,-357.5 867.5,-357.5 873.5,-357.5 879.5,-363.5 879.5,-369.5 879.5,-369.5 879.5,-381.5 879.5,-381.5 879.5,-387.5 873.5,-393.5 867.5,-393.5"/>
<text text-anchor="middle" x="807" y="-371.8" font-family="Times,serif" font-size="14.00">283: procesNestedRel()</text>
</g>
<!-- node_e6944dcd&#45;&gt;node_b43bcee5 -->
<g id="edge25" class="edge">
<title>node_e6944dcd&#45;&gt;node_b43bcee5</title>
<path fill="none" stroke="#0072b2" stroke-width="2" d="M683.04,-381.83C683.04,-381.83 724.26,-381.83 724.26,-381.83"/>
<polygon fill="#0072b2" stroke="#0072b2" stroke-width="2" points="724.26,-385.33 734.26,-381.83 724.26,-378.33 724.26,-385.33"/>
</g>
<!-- node_513f2e9e -->
<g id="node14" class="node">
<title>node_513f2e9e</title>
<path fill="#6db33f" stroke="black" d="M655.5,-502.5C655.5,-502.5 536.5,-502.5 536.5,-502.5 530.5,-502.5 524.5,-496.5 524.5,-490.5 524.5,-490.5 524.5,-478.5 524.5,-478.5 524.5,-472.5 530.5,-466.5 536.5,-466.5 536.5,-466.5 655.5,-466.5 655.5,-466.5 661.5,-466.5 667.5,-472.5 667.5,-478.5 667.5,-478.5 667.5,-490.5 667.5,-490.5 667.5,-496.5 661.5,-502.5 655.5,-502.5"/>
<text text-anchor="middle" x="596" y="-480.8" font-family="Times,serif" font-size="14.00">945: filterObjectType()</text>
</g>
<!-- node_9bbadeb1 -->
<g id="node16" class="node">
<title>node_9bbadeb1</title>
<path fill="#966f33" stroke="black" d="M184,-401.5C184,-401.5 83,-401.5 83,-401.5 77,-401.5 71,-395.5 71,-389.5 71,-389.5 71,-377.5 71,-377.5 71,-371.5 77,-365.5 83,-365.5 83,-365.5 184,-365.5 184,-365.5 190,-365.5 196,-371.5 196,-377.5 196,-377.5 196,-389.5 196,-389.5 196,-395.5 190,-401.5 184,-401.5"/>
<text text-anchor="middle" x="133.5" y="-379.8" font-family="Times,serif" font-size="14.00">37: generate_view()</text>
</g>
<!-- node_9bbadeb1&#45;&gt;node_74c045f8 -->
<g id="edge26" class="edge">
<title>node_9bbadeb1&#45;&gt;node_74c045f8</title>
<path fill="none" stroke="#e69f00" stroke-width="2" d="M96,-365.24C96,-308.72 96,-140.5 96,-140.5 96,-140.5 318.2,-140.5 318.2,-140.5"/>
<polygon fill="#e69f00" stroke="#e69f00" stroke-width="2" points="318.2,-144 328.2,-140.5 318.2,-137 318.2,-144"/>
</g>
<!-- node_9bbadeb1&#45;&gt;node_b92d1882 -->
<g id="edge27" class="edge">
<title>node_9bbadeb1&#45;&gt;node_b92d1882</title>
<path fill="none" stroke="#e69f00" stroke-width="2" d="M121,-365.38C121,-318.07 121,-194.5 121,-194.5 121,-194.5 309.24,-194.5 309.24,-194.5"/>
<polygon fill="#e69f00" stroke="#e69f00" stroke-width="2" points="309.24,-198 319.24,-194.5 309.24,-191 309.24,-198"/>
</g>
<!-- node_282a9c1c -->
<g id="node20" class="node">
<title>node_282a9c1c</title>
<path fill="#6db33f" stroke="black" d="M444,-266.5C444,-266.5 332,-266.5 332,-266.5 326,-266.5 320,-260.5 320,-254.5 320,-254.5 320,-242.5 320,-242.5 320,-236.5 326,-230.5 332,-230.5 332,-230.5 444,-230.5 444,-230.5 450,-230.5 456,-236.5 456,-242.5 456,-242.5 456,-254.5 456,-254.5 456,-260.5 450,-266.5 444,-266.5"/>
<text text-anchor="middle" x="388" y="-244.8" font-family="Times,serif" font-size="14.00">458: getEmptyView()</text>
</g>
<!-- node_9bbadeb1&#45;&gt;node_282a9c1c -->
<g id="edge31" class="edge">
<title>node_9bbadeb1&#45;&gt;node_282a9c1c</title>
<path fill="none" stroke="#e69f00" stroke-width="2" d="M146,-365.29C146,-328.44 146,-248.5 146,-248.5 146,-248.5 309.95,-248.5 309.95,-248.5"/>
<polygon fill="#e69f00" stroke="#e69f00" stroke-width="2" points="309.95,-252 319.95,-248.5 309.95,-245 309.95,-252"/>
</g>
<!-- node_a2fb0086 -->
<g id="node21" class="node">
<title>node_a2fb0086</title>
<path fill="#6db33f" stroke="black" d="M428.5,-320.5C428.5,-320.5 347.5,-320.5 347.5,-320.5 341.5,-320.5 335.5,-314.5 335.5,-308.5 335.5,-308.5 335.5,-296.5 335.5,-296.5 335.5,-290.5 341.5,-284.5 347.5,-284.5 347.5,-284.5 428.5,-284.5 428.5,-284.5 434.5,-284.5 440.5,-290.5 440.5,-296.5 440.5,-296.5 440.5,-308.5 440.5,-308.5 440.5,-314.5 434.5,-320.5 428.5,-320.5"/>
<text text-anchor="middle" x="388" y="-298.8" font-family="Times,serif" font-size="14.00">446: getFolder()</text>
</g>
<!-- node_9bbadeb1&#45;&gt;node_a2fb0086 -->
<g id="edge33" class="edge">
<title>node_9bbadeb1&#45;&gt;node_a2fb0086</title>
<path fill="none" stroke="#e69f00" stroke-width="2" d="M171,-365.12C171,-341.22 171,-302.5 171,-302.5 171,-302.5 325.47,-302.5 325.47,-302.5"/>
<polygon fill="#e69f00" stroke="#e69f00" stroke-width="2" points="325.47,-306 335.47,-302.5 325.47,-299 325.47,-306"/>
</g>
<!-- node_f8f5d6f1 -->
<g id="node22" class="node">
<title>node_f8f5d6f1</title>
<path fill="#6db33f" stroke="black" d="M458,-374.5C458,-374.5 318,-374.5 318,-374.5 312,-374.5 306,-368.5 306,-362.5 306,-362.5 306,-350.5 306,-350.5 306,-344.5 312,-338.5 318,-338.5 318,-338.5 458,-338.5 458,-338.5 464,-338.5 470,-344.5 470,-350.5 470,-350.5 470,-362.5 470,-362.5 470,-368.5 464,-374.5 458,-374.5"/>
<text text-anchor="middle" x="388" y="-352.8" font-family="Times,serif" font-size="14.00">107: getLayoutCollection()</text>
</g>
<!-- node_9bbadeb1&#45;&gt;node_f8f5d6f1 -->
<g id="edge34" class="edge">
<title>node_9bbadeb1&#45;&gt;node_f8f5d6f1</title>
<path fill="none" stroke="#e69f00" stroke-width="2" d="M196.08,-370C196.08,-370 295.91,-370 295.91,-370"/>
<polygon fill="#e69f00" stroke="#e69f00" stroke-width="2" points="295.91,-373.5 305.91,-370 295.91,-366.5 295.91,-373.5"/>
</g>
<!-- node_1347ebab -->
<g id="node24" class="node">
<title>node_1347ebab</title>
<path fill="#6db33f" stroke="black" d="M656.5,-556.5C656.5,-556.5 535.5,-556.5 535.5,-556.5 529.5,-556.5 523.5,-550.5 523.5,-544.5 523.5,-544.5 523.5,-532.5 523.5,-532.5 523.5,-526.5 529.5,-520.5 535.5,-520.5 535.5,-520.5 656.5,-520.5 656.5,-520.5 662.5,-520.5 668.5,-526.5 668.5,-532.5 668.5,-532.5 668.5,-544.5 668.5,-544.5 668.5,-550.5 662.5,-556.5 656.5,-556.5"/>
<text text-anchor="middle" x="596" y="-534.8" font-family="Times,serif" font-size="14.00">485: getSelectedView()</text>
</g>
<!-- node_9bbadeb1&#45;&gt;node_1347ebab -->
<g id="edge36" class="edge">
<title>node_9bbadeb1&#45;&gt;node_1347ebab</title>
<path fill="none" stroke="#e69f00" stroke-width="2" d="M103,-401.51C103,-443.26 103,-543.17 103,-543.17 103,-543.17 513.26,-543.17 513.26,-543.17"/>
<polygon fill="#e69f00" stroke="#e69f00" stroke-width="2" points="513.26,-546.67 523.26,-543.17 513.26,-539.67 513.26,-546.67"/>
</g>
<!-- node_650bb126 -->
<g id="node25" class="node">
<title>node_650bb126</title>
<path fill="#cccccc" stroke="black" d="M444.5,-482.5C444.5,-482.5 331.5,-482.5 331.5,-482.5 325.5,-482.5 319.5,-476.5 319.5,-470.5 319.5,-470.5 319.5,-458.5 319.5,-458.5 319.5,-452.5 325.5,-446.5 331.5,-446.5 331.5,-446.5 444.5,-446.5 444.5,-446.5 450.5,-446.5 456.5,-452.5 456.5,-458.5 456.5,-458.5 456.5,-470.5 456.5,-470.5 456.5,-476.5 450.5,-482.5 444.5,-482.5"/>
<text text-anchor="middle" x="388" y="-460.8" font-family="Times,serif" font-size="14.00">149: growCollection()</text>
</g>
<!-- node_9bbadeb1&#45;&gt;node_650bb126 -->
<g id="edge38" class="edge">
<title>node_9bbadeb1&#45;&gt;node_650bb126</title>
<path fill="none" stroke="#e69f00" stroke-width="2" d="M165,-401.88C165,-425.78 165,-464.5 165,-464.5 165,-464.5 309.27,-464.5 309.27,-464.5"/>
<polygon fill="#e69f00" stroke="#e69f00" stroke-width="2" points="309.27,-468 319.27,-464.5 309.27,-461 309.27,-468"/>
</g>
<!-- node_f75c379a -->
<g id="node27" class="node">
<title>node_f75c379a</title>
<path fill="#6db33f" stroke="black" d="M431,-536.5C431,-536.5 345,-536.5 345,-536.5 339,-536.5 333,-530.5 333,-524.5 333,-524.5 333,-512.5 333,-512.5 333,-506.5 339,-500.5 345,-500.5 345,-500.5 431,-500.5 431,-500.5 437,-500.5 443,-506.5 443,-512.5 443,-512.5 443,-524.5 443,-524.5 443,-530.5 437,-536.5 431,-536.5"/>
<text text-anchor="middle" x="388" y="-514.8" font-family="Times,serif" font-size="14.00">592: loadDagre()</text>
</g>
<!-- node_9bbadeb1&#45;&gt;node_f75c379a -->
<g id="edge41" class="edge">
<title>node_9bbadeb1&#45;&gt;node_f75c379a</title>
<path fill="none" stroke="#e69f00" stroke-width="2" d="M134,-401.71C134,-438.56 134,-518.5 134,-518.5 134,-518.5 322.89,-518.5 322.89,-518.5"/>
<polygon fill="#e69f00" stroke="#e69f00" stroke-width="2" points="322.89,-522 332.89,-518.5 322.89,-515 322.89,-522"/>
</g>
<!-- node_94f906d2 -->
<g id="node31" class="node">
<title>node_94f906d2</title>
<path fill="#cccccc" stroke="black" d="M443.5,-428.5C443.5,-428.5 332.5,-428.5 332.5,-428.5 326.5,-428.5 320.5,-422.5 320.5,-416.5 320.5,-416.5 320.5,-404.5 320.5,-404.5 320.5,-398.5 326.5,-392.5 332.5,-392.5 332.5,-392.5 443.5,-392.5 443.5,-392.5 449.5,-392.5 455.5,-398.5 455.5,-404.5 455.5,-404.5 455.5,-416.5 455.5,-416.5 455.5,-422.5 449.5,-428.5 443.5,-428.5"/>
<text text-anchor="middle" x="388" y="-406.8" font-family="Times,serif" font-size="14.00">126: selectElements()</text>
</g>
<!-- node_9bbadeb1&#45;&gt;node_94f906d2 -->
<g id="edge42" class="edge">
<title>node_9bbadeb1&#45;&gt;node_94f906d2</title>
<path fill="none" stroke="#e69f00" stroke-width="2" d="M196.08,-395.5C196.08,-395.5 310.3,-395.5 310.3,-395.5"/>
<polygon fill="#e69f00" stroke="#e69f00" stroke-width="2" points="310.3,-399 320.3,-395.5 310.3,-392 310.3,-399"/>
</g>
<!-- node_f88e14eb -->
<g id="node32" class="node">
<title>node_f88e14eb</title>
<path fill="#cccccc" stroke="black" d="M461,-610.5C461,-610.5 315,-610.5 315,-610.5 309,-610.5 303,-604.5 303,-598.5 303,-598.5 303,-586.5 303,-586.5 303,-580.5 309,-574.5 315,-574.5 315,-574.5 461,-574.5 461,-574.5 467,-574.5 473,-580.5 473,-586.5 473,-586.5 473,-598.5 473,-598.5 473,-604.5 467,-610.5 461,-610.5"/>
<text text-anchor="middle" x="388" y="-588.8" font-family="Times,serif" font-size="14.00">504: setDefaultParameters()</text>
</g>
<!-- node_9bbadeb1&#45;&gt;node_f88e14eb -->
<g id="edge43" class="edge">
<title>node_9bbadeb1&#45;&gt;node_f88e14eb</title>
<path fill="none" stroke="#e69f00" stroke-width="2" d="M196.03,-398.5C247.83,-398.5 313,-398.5 313,-398.5 313,-398.5 313,-564.25 313,-564.25"/>
<polygon fill="#e69f00" stroke="#e69f00" stroke-width="2" points="309.5,-564.25 313,-574.25 316.5,-564.25 309.5,-564.25"/>
</g>
<!-- node_645222da -->
<g id="node18" class="node">
<title>node_645222da</title>
<path fill="#cccccc" stroke="black" d="M1348,-592.5C1348,-592.5 1176,-592.5 1176,-592.5 1170,-592.5 1164,-586.5 1164,-580.5 1164,-580.5 1164,-568.5 1164,-568.5 1164,-562.5 1170,-556.5 1176,-556.5 1176,-556.5 1348,-556.5 1348,-556.5 1354,-556.5 1360,-562.5 1360,-568.5 1360,-568.5 1360,-580.5 1360,-580.5 1360,-586.5 1354,-592.5 1348,-592.5"/>
<text text-anchor="middle" x="1262" y="-570.8" font-family="Times,serif" font-size="14.00">807: getCenterBoundsAbsolute()</text>
</g>
<!-- node_4ef9fffa&#45;&gt;node_645222da -->
<g id="edge44" class="edge">
<title>node_4ef9fffa&#45;&gt;node_645222da</title>
<path fill="none" stroke="#56b4e9" stroke-width="2" d="M1103.06,-580.5C1103.06,-580.5 1153.82,-580.5 1153.82,-580.5"/>
<polygon fill="#56b4e9" stroke="#56b4e9" stroke-width="2" points="1153.82,-584 1163.82,-580.5 1153.82,-577 1153.82,-584"/>
</g>
<!-- node_645222da&#45;&gt;node_645222da -->
<g id="edge45" class="edge">
<title>node_645222da&#45;&gt;node_645222da</title>
<path fill="none" stroke="#56b4e9" stroke-width="2" d="M1163.87,-586.5C1153.14,-586.5 1146,-586.5 1146,-586.5 1146,-586.5 1146,-601.5 1146,-601.5 1146,-601.5 1378,-601.5 1378,-601.5 1378,-601.5 1378,-574.5 1378,-574.5 1378,-574.5 1370.13,-574.5 1370.13,-574.5"/>
<polygon fill="#56b4e9" stroke="#56b4e9" stroke-width="2" points="1370.13,-571 1360.13,-574.5 1370.13,-578 1370.13,-571"/>
</g>
<!-- node_5bf3ac32&#45;&gt;node_8ba303e7 -->
<g id="edge46" class="edge">
<title>node_5bf3ac32&#45;&gt;node_8ba303e7</title>
<path fill="none" stroke="#56b4e9" stroke-width="2" d="M1109.51,-444C1109.51,-444 1169.47,-444 1169.47,-444"/>
<polygon fill="#56b4e9" stroke="#56b4e9" stroke-width="2" points="1169.47,-447.5 1179.47,-444 1169.47,-440.5 1169.47,-447.5"/>
</g>
<!-- node_45ddc885 -->
<g id="node23" class="node">
<title>node_45ddc885</title>
<path fill="#cccccc" stroke="black" d="M1116,-502.5C1116,-502.5 943,-502.5 943,-502.5 937,-502.5 931,-496.5 931,-490.5 931,-490.5 931,-478.5 931,-478.5 931,-472.5 937,-466.5 943,-466.5 943,-466.5 1116,-466.5 1116,-466.5 1122,-466.5 1128,-472.5 1128,-478.5 1128,-478.5 1128,-490.5 1128,-490.5 1128,-496.5 1122,-502.5 1116,-502.5"/>
<text text-anchor="middle" x="1029.5" y="-480.8" font-family="Times,serif" font-size="14.00">714: getNestedElementPosition()</text>
</g>
<!-- node_45ddc885&#45;&gt;node_8ba303e7 -->
<g id="edge47" class="edge">
<title>node_45ddc885&#45;&gt;node_8ba303e7</title>
<path fill="none" stroke="#0072b2" stroke-width="2" d="M1128.1,-471C1128.1,-471 1169.38,-471 1169.38,-471"/>
<polygon fill="#0072b2" stroke="#0072b2" stroke-width="2" points="1169.38,-474.5 1179.38,-471 1169.38,-467.5 1169.38,-474.5"/>
</g>
<!-- node_650bb126&#45;&gt;node_513f2e9e -->
<g id="edge49" class="edge">
<title>node_650bb126&#45;&gt;node_513f2e9e</title>
<path fill="none" stroke="#d55e00" stroke-width="2" d="M456.68,-474.5C456.68,-474.5 514.18,-474.5 514.18,-474.5"/>
<polygon fill="#d55e00" stroke="#d55e00" stroke-width="2" points="514.18,-478 524.18,-474.5 514.18,-471 514.18,-478"/>
</g>
<!-- node_57381b58&#45;&gt;node_45ddc885 -->
<g id="edge52" class="edge">
<title>node_57381b58&#45;&gt;node_45ddc885</title>
<path fill="none" stroke="#000000" stroke-width="2" d="M895.26,-472.83C895.26,-472.83 920.71,-472.83 920.71,-472.83"/>
<polygon fill="#000000" stroke="#000000" stroke-width="2" points="920.71,-476.33 930.71,-472.83 920.71,-469.33 920.71,-476.33"/>
</g>
<!-- node_57381b58&#45;&gt;node_57381b58 -->
<g id="edge53" class="edge">
<title>node_57381b58&#45;&gt;node_57381b58</title>
<path fill="none" stroke="#000000" stroke-width="2" d="M718.98,-476C708.26,-476 701,-476 701,-476 701,-476 701,-494 701,-494 701,-494 913,-494 913,-494 913,-494 913,-479.17 913,-479.17 913,-479.17 905.02,-479.17 905.02,-479.17"/>
<polygon fill="#000000" stroke="#000000" stroke-width="2" points="905.02,-475.67 895.02,-479.17 905.02,-482.67 905.02,-475.67"/>
</g>
<!-- node_b43bcee5&#45;&gt;node_da01b34c -->
<g id="edge54" class="edge">
<title>node_b43bcee5&#45;&gt;node_da01b34c</title>
<path fill="none" stroke="#0072b2" stroke-width="2" d="M879.55,-363.17C879.55,-363.17 937.41,-363.17 937.41,-363.17"/>
<polygon fill="#0072b2" stroke="#0072b2" stroke-width="2" points="937.41,-366.67 947.41,-363.17 937.41,-359.67 937.41,-366.67"/>
</g>
<!-- node_b43bcee5&#45;&gt;node_54e10289 -->
<g id="edge56" class="edge">
<title>node_b43bcee5&#45;&gt;node_54e10289</title>
<path fill="none" stroke="#0072b2" stroke-width="2" d="M879.66,-384C1053.11,-384 1477,-384 1477,-384 1477,-384 1477,-330.59 1477,-330.59"/>
<polygon fill="#0072b2" stroke="#0072b2" stroke-width="2" points="1480.5,-330.59 1477,-320.59 1473.5,-330.59 1480.5,-330.59"/>
</g>
<!-- node_b43bcee5&#45;&gt;node_b43bcee5 -->
<g id="edge57" class="edge">
<title>node_b43bcee5&#45;&gt;node_b43bcee5</title>
<path fill="none" stroke="#0072b2" stroke-width="2" d="M734.14,-370.17C731.52,-370.17 730,-370.17 730,-370.17 730,-370.17 730,-348 730,-348 730,-348 888,-348 888,-348 888,-348 888,-368.83 888,-368.83 888,-368.83 887.16,-368.83 887.16,-368.83"/>
<polygon fill="#0072b2" stroke="#0072b2" stroke-width="2" points="889.64,-365.33 879.64,-368.83 889.64,-372.33 889.64,-365.33"/>
</g>
<!-- node_94f906d2&#45;&gt;node_513f2e9e -->
<g id="edge58" class="edge">
<title>node_94f906d2&#45;&gt;node_513f2e9e</title>
<path fill="none" stroke="#56b4e9" stroke-width="2" d="M455.67,-423.17C492.25,-423.17 530,-423.17 530,-423.17 530,-423.17 530,-456.43 530,-456.43"/>
<polygon fill="#56b4e9" stroke="#56b4e9" stroke-width="2" points="526.5,-456.43 530,-466.43 533.5,-456.43 526.5,-456.43"/>
</g>
<!-- node_f88e14eb&#45;&gt;node_1347ebab -->
<g id="edge59" class="edge">
<title>node_f88e14eb&#45;&gt;node_1347ebab</title>
<path fill="none" stroke="#009e73" stroke-width="2" d="M464,-574.16C464,-562.59 464,-549.83 464,-549.83 464,-549.83 513.44,-549.83 513.44,-549.83"/>
<polygon fill="#009e73" stroke="#009e73" stroke-width="2" points="513.44,-553.33 523.44,-549.83 513.44,-546.33 513.44,-553.33"/>
</g>
<!-- node_1eba0072 -->
<g id="node34" class="node">
<title>node_1eba0072</title>
<path fill="#6db33f" stroke="black" d="M662,-610.5C662,-610.5 530,-610.5 530,-610.5 524,-610.5 518,-604.5 518,-598.5 518,-598.5 518,-586.5 518,-586.5 518,-580.5 524,-574.5 530,-574.5 530,-574.5 662,-574.5 662,-574.5 668,-574.5 674,-580.5 674,-586.5 674,-586.5 674,-598.5 674,-598.5 674,-604.5 668,-610.5 662,-610.5"/>
<text text-anchor="middle" x="596" y="-588.8" font-family="Times,serif" font-size="14.00">565: validArchiConcept()</text>
</g>
<!-- node_f88e14eb&#45;&gt;node_1eba0072 -->
<g id="edge60" class="edge">
<title>node_f88e14eb&#45;&gt;node_1eba0072</title>
<path fill="none" stroke="#009e73" stroke-width="2" d="M473.2,-592.5C473.2,-592.5 507.95,-592.5 507.95,-592.5"/>
<polygon fill="#009e73" stroke="#009e73" stroke-width="2" points="507.95,-596 517.95,-592.5 507.95,-589 507.95,-596"/>
</g>
</g>
</svg>
