<?xml version="1.0" encoding="UTF-8" standalone="no"?>
<!DOCTYPE svg PUBLIC "-//W3C//DTD SVG 1.1//EN"
 "http://www.w3.org/Graphics/SVG/1.1/DTD/svg11.dtd">
<!-- Generated by graphviz version 5.0.0 (0)
 -->
<!-- Title: G Pages: 1 -->
<svg width="1499pt" height="690pt"
 viewBox="0.00 0.00 1499.00 690.00" xmlns="http://www.w3.org/2000/svg" xmlns:xlink="http://www.w3.org/1999/xlink">
<g id="graph0" class="graph" transform="scale(1 1) rotate(0) translate(4 686)">
<title>G</title>
<polygon fill="white" stroke="transparent" points="-4,4 -4,-686 1495,-686 1495,4 -4,4"/>
<g id="clust2" class="cluster">
<title>cluster_88b422be</title>
<polygon fill="none" stroke="black" stroke-dasharray="1,5" points="55,-450 55,-525 213,-525 213,-450 55,-450"/>
<text text-anchor="middle" x="134" y="-509.8" font-family="Times,serif" font-size="14.00">File: expand_view_ids.ajs</text>
</g>
<g id="clust3" class="cluster">
<title>cluster_1fa274ea</title>
<polygon fill="none" stroke="black" stroke-dasharray="1,5" points="51,-367 51,-442 216,-442 216,-367 51,-367"/>
<text text-anchor="middle" x="133.5" y="-426.8" font-family="Times,serif" font-size="14.00">File: generate_view_ids.ajs</text>
</g>
<g id="clust4" class="cluster">
<title>cluster_a5fb857f</title>
<polygon fill="none" stroke="black" stroke-dasharray="1,5" points="295,-109 295,-674 1483,-674 1483,-109 295,-109"/>
<text text-anchor="middle" x="889" y="-658.8" font-family="Times,serif" font-size="14.00">File: include_generate_view_visual_id</text>
</g>
<g id="clust5" class="cluster">
<title>cluster_5a52f923</title>
<polygon fill="none" stroke="black" stroke-dasharray="1,5" points="57,-284 57,-359 210,-359 210,-284 57,-284"/>
<text text-anchor="middle" x="133.5" y="-343.8" font-family="Times,serif" font-size="14.00">File: layout_view_ids.ajs</text>
</g>
<g id="clust6" class="cluster">
<title>cluster_95c41fbd</title>
<polygon fill="none" stroke="black" stroke-dasharray="1,5" points="37,-201 37,-276 231,-276 231,-201 37,-201"/>
<text text-anchor="middle" x="134" y="-260.8" font-family="Times,serif" font-size="14.00">File: layout_view_nested_ids.ajs</text>
</g>
<g id="clust7" class="cluster">
<title>cluster_0538eea7</title>
<polygon fill="none" stroke="black" stroke-dasharray="1,5" points="683.5,-8 683.5,-101 1231,-101 1231,-8 683.5,-8"/>
<text text-anchor="middle" x="957.25" y="-85.8" font-family="Times,serif" font-size="14.00">File: selection</text>
</g>
<!-- Legend -->
<g id="node1" class="node">
<title>Legend</title>
<polygon fill="none" stroke="black" points="1.5,-172 1.5,-189 266.5,-189 266.5,-172 1.5,-172"/>
<text text-anchor="start" x="81.5" y="-176.8" font-family="Times,serif" font-size="14.00">Code2flow Legend</text>
<polygon fill="none" stroke="black" points="1.5,-84 1.5,-172 266.5,-172 266.5,-84 1.5,-84"/>
<polygon fill="none" stroke="black" points="3.5,-149 3.5,-170 214.5,-170 214.5,-149 3.5,-149"/>
<text text-anchor="start" x="63" y="-155.8" font-family="Times,serif" font-size="14.00">Regular function</text>
<polygon fill="#cccccc" stroke="transparent" points="214.5,-149 214.5,-170 264.5,-170 264.5,-149 214.5,-149"/>
<polygon fill="none" stroke="black" points="214.5,-149 214.5,-170 264.5,-170 264.5,-149 214.5,-149"/>
<polygon fill="none" stroke="black" points="3.5,-128 3.5,-149 214.5,-149 214.5,-128 3.5,-128"/>
<text text-anchor="start" x="15" y="-134.8" font-family="Times,serif" font-size="14.00">Trunk function (nothing calls this)</text>
<polygon fill="#966f33" stroke="transparent" points="214.5,-128 214.5,-149 264.5,-149 264.5,-128 214.5,-128"/>
<polygon fill="none" stroke="black" points="214.5,-128 214.5,-149 264.5,-149 264.5,-128 214.5,-128"/>
<polygon fill="none" stroke="black" points="3.5,-107 3.5,-128 214.5,-128 214.5,-107 3.5,-107"/>
<text text-anchor="start" x="6.5" y="-113.8" font-family="Times,serif" font-size="14.00">Leaf function (this calls nothing else)</text>
<polygon fill="#6db33f" stroke="transparent" points="214.5,-107 214.5,-128 264.5,-128 264.5,-107 214.5,-107"/>
<polygon fill="none" stroke="black" points="214.5,-107 214.5,-128 264.5,-128 264.5,-107 214.5,-107"/>
<polygon fill="none" stroke="black" points="3.5,-86 3.5,-107 214.5,-107 214.5,-86 3.5,-86"/>
<text text-anchor="start" x="73" y="-92.8" font-family="Times,serif" font-size="14.00">Function call</text>
<polygon fill="none" stroke="black" points="214.5,-86 214.5,-107 264.5,-107 264.5,-86 214.5,-86"/>
<text text-anchor="start" x="232" y="-92.8" font-family="Times,serif" font-size="14.00">→</text>
<polygon fill="none" stroke="black" points="2.5,-85 2.5,-171 265.5,-171 265.5,-85 2.5,-85"/>
<polygon fill="none" stroke="black" points="0,-83.5 0,-190.5 267,-190.5 267,-83.5 0,-83.5"/>
</g>
<!-- node_208e45e7 -->
<g id="node2" class="node">
<title>node_208e45e7</title>
<path fill="#966f33" stroke="black" d="M163,-494C163,-494 104,-494 104,-494 98,-494 92,-488 92,-482 92,-482 92,-470 92,-470 92,-464 98,-458 104,-458 104,-458 163,-458 163,-458 169,-458 175,-464 175,-470 175,-470 175,-482 175,-482 175,-488 169,-494 163,-494"/>
<text text-anchor="middle" x="133.5" y="-472.3" font-family="Times,serif" font-size="14.00">0: (global)()</text>
</g>
<!-- node_3055d125 -->
<g id="node16" class="node">
<title>node_3055d125</title>
<path fill="#cccccc" stroke="black" d="M416,-369C416,-369 315,-369 315,-369 309,-369 303,-363 303,-357 303,-357 303,-345 303,-345 303,-339 309,-333 315,-333 315,-333 416,-333 416,-333 422,-333 428,-339 428,-345 428,-345 428,-357 428,-357 428,-363 422,-369 416,-369"/>
<text text-anchor="middle" x="365.5" y="-347.3" font-family="Times,serif" font-size="14.00">37: generate_view()</text>
</g>
<!-- node_208e45e7&#45;&gt;node_3055d125 -->
<g id="edge1" class="edge">
<title>node_208e45e7&#45;&gt;node_3055d125</title>
<path fill="none" stroke="#cc79a7" stroke-width="2" d="M175.23,-467.5C232.38,-467.5 328,-467.5 328,-467.5 328,-467.5 328,-379.2 328,-379.2"/>
<polygon fill="#cc79a7" stroke="#cc79a7" stroke-width="2" points="331.5,-379.2 328,-369.2 324.5,-379.2 331.5,-379.2"/>
</g>
<!-- node_4739b206 -->
<g id="node3" class="node">
<title>node_4739b206</title>
<path fill="#966f33" stroke="black" d="M163,-411C163,-411 104,-411 104,-411 98,-411 92,-405 92,-399 92,-399 92,-387 92,-387 92,-381 98,-375 104,-375 104,-375 163,-375 163,-375 169,-375 175,-381 175,-387 175,-387 175,-399 175,-399 175,-405 169,-411 163,-411"/>
<text text-anchor="middle" x="133.5" y="-389.3" font-family="Times,serif" font-size="14.00">0: (global)()</text>
</g>
<!-- node_4739b206&#45;&gt;node_3055d125 -->
<g id="edge2" class="edge">
<title>node_4739b206&#45;&gt;node_3055d125</title>
<path fill="none" stroke="#d55e00" stroke-width="2" d="M120,-374.58C120,-365.72 120,-357 120,-357 120,-357 292.91,-357 292.91,-357"/>
<polygon fill="#d55e00" stroke="#d55e00" stroke-width="2" points="292.91,-360.5 302.91,-357 292.91,-353.5 292.91,-360.5"/>
</g>
<!-- node_a570edea -->
<g id="node4" class="node">
<title>node_a570edea</title>
<path fill="#6db33f" stroke="black" d="M1232.5,-409C1232.5,-409 1118.5,-409 1118.5,-409 1112.5,-409 1106.5,-403 1106.5,-397 1106.5,-397 1106.5,-385 1106.5,-385 1106.5,-379 1112.5,-373 1118.5,-373 1118.5,-373 1232.5,-373 1232.5,-373 1238.5,-373 1244.5,-379 1244.5,-385 1244.5,-385 1244.5,-397 1244.5,-397 1244.5,-403 1238.5,-409 1232.5,-409"/>
<text text-anchor="middle" x="1175.5" y="-387.3" font-family="Times,serif" font-size="14.00">373: addVisualChild()</text>
</g>
<!-- node_3d99c68c -->
<g id="node5" class="node">
<title>node_3d99c68c</title>
<path fill="#cccccc" stroke="black" d="M1240.5,-483C1240.5,-483 1110.5,-483 1110.5,-483 1104.5,-483 1098.5,-477 1098.5,-471 1098.5,-471 1098.5,-459 1098.5,-459 1098.5,-453 1104.5,-447 1110.5,-447 1110.5,-447 1240.5,-447 1240.5,-447 1246.5,-447 1252.5,-453 1252.5,-459 1252.5,-459 1252.5,-471 1252.5,-471 1252.5,-477 1246.5,-483 1240.5,-483"/>
<text text-anchor="middle" x="1175.5" y="-461.3" font-family="Times,serif" font-size="14.00">354: addVisualElement()</text>
</g>
<!-- node_f248b59d -->
<g id="node15" class="node">
<title>node_f248b59d</title>
<path fill="#6db33f" stroke="black" d="M1441,-464C1441,-464 1344,-464 1344,-464 1338,-464 1332,-458 1332,-452 1332,-452 1332,-440 1332,-440 1332,-434 1338,-428 1344,-428 1344,-428 1441,-428 1441,-428 1447,-428 1453,-434 1453,-440 1453,-440 1453,-452 1453,-452 1453,-458 1447,-464 1441,-464"/>
<text text-anchor="middle" x="1392.5" y="-442.3" font-family="Times,serif" font-size="14.00">442: findOnView()</text>
</g>
<!-- node_3d99c68c&#45;&gt;node_f248b59d -->
<g id="edge3" class="edge">
<title>node_3d99c68c&#45;&gt;node_f248b59d</title>
<path fill="none" stroke="#f0e442" stroke-width="2" d="M1252.62,-455.5C1252.62,-455.5 1321.99,-455.5 1321.99,-455.5"/>
<polygon fill="#f0e442" stroke="#f0e442" stroke-width="2" points="1321.99,-459 1331.99,-455.5 1321.99,-452 1321.99,-459"/>
</g>
<!-- node_9095f20b -->
<g id="node6" class="node">
<title>node_9095f20b</title>
<path fill="#cccccc" stroke="black" d="M1021.5,-441C1021.5,-441 881.5,-441 881.5,-441 875.5,-441 869.5,-435 869.5,-429 869.5,-429 869.5,-417 869.5,-417 869.5,-411 875.5,-405 881.5,-405 881.5,-405 1021.5,-405 1021.5,-405 1027.5,-405 1033.5,-411 1033.5,-417 1033.5,-417 1033.5,-429 1033.5,-429 1033.5,-435 1027.5,-441 1021.5,-441"/>
<text text-anchor="middle" x="951.5" y="-419.3" font-family="Times,serif" font-size="14.00">328: addVisualNestedRel()</text>
</g>
<!-- node_9095f20b&#45;&gt;node_a570edea -->
<g id="edge4" class="edge">
<title>node_9095f20b&#45;&gt;node_a570edea</title>
<path fill="none" stroke="#009e73" stroke-width="2" d="M1033.57,-421.67C1105.62,-421.67 1199,-421.67 1199,-421.67 1199,-421.67 1199,-419.19 1199,-419.19"/>
<polygon fill="#009e73" stroke="#009e73" stroke-width="2" points="1202.5,-419.19 1199,-409.19 1195.5,-419.19 1202.5,-419.19"/>
</g>
<!-- node_9095f20b&#45;&gt;node_3d99c68c -->
<g id="edge5" class="edge">
<title>node_9095f20b&#45;&gt;node_3d99c68c</title>
<path fill="none" stroke="#009e73" stroke-width="2" d="M1033.75,-437.75C1089.47,-437.75 1153,-437.75 1153,-437.75 1153,-437.75 1153,-438.67 1153,-438.67"/>
<polygon fill="#009e73" stroke="#009e73" stroke-width="2" points="1149.5,-436.98 1153,-446.98 1156.5,-436.98 1149.5,-436.98"/>
</g>
<!-- node_9095f20b&#45;&gt;node_f248b59d -->
<g id="edge6" class="edge">
<title>node_9095f20b&#45;&gt;node_f248b59d</title>
<path fill="none" stroke="#009e73" stroke-width="2" d="M1033.67,-434.5C1033.67,-434.5 1322,-434.5 1322,-434.5"/>
<polygon fill="#009e73" stroke="#009e73" stroke-width="2" points="1322,-438 1332,-434.5 1322,-431 1322,-438"/>
</g>
<!-- node_5969ea7b -->
<g id="node30" class="node">
<title>node_5969ea7b</title>
<path fill="#6db33f" stroke="black" d="M1212.5,-355C1212.5,-355 1138.5,-355 1138.5,-355 1132.5,-355 1126.5,-349 1126.5,-343 1126.5,-343 1126.5,-331 1126.5,-331 1126.5,-325 1132.5,-319 1138.5,-319 1138.5,-319 1212.5,-319 1212.5,-319 1218.5,-319 1224.5,-325 1224.5,-331 1224.5,-331 1224.5,-343 1224.5,-343 1224.5,-349 1218.5,-355 1212.5,-355"/>
<text text-anchor="middle" x="1175.5" y="-333.3" font-family="Times,serif" font-size="14.00">968: printRel()</text>
</g>
<!-- node_9095f20b&#45;&gt;node_5969ea7b -->
<g id="edge7" class="edge">
<title>node_9095f20b&#45;&gt;node_5969ea7b</title>
<path fill="none" stroke="#009e73" stroke-width="2" d="M1033.91,-415.33C1045.19,-415.33 1053,-415.33 1053,-415.33 1053,-415.33 1053,-347 1053,-347 1053,-347 1116.38,-347 1116.38,-347"/>
<polygon fill="#009e73" stroke="#009e73" stroke-width="2" points="1116.38,-350.5 1126.38,-347 1116.38,-343.5 1116.38,-350.5"/>
</g>
<!-- node_a1e2bbae -->
<g id="node7" class="node">
<title>node_a1e2bbae</title>
<path fill="#cccccc" stroke="black" d="M1016.5,-333C1016.5,-333 886.5,-333 886.5,-333 880.5,-333 874.5,-327 874.5,-321 874.5,-321 874.5,-309 874.5,-309 874.5,-303 880.5,-297 886.5,-297 886.5,-297 1016.5,-297 1016.5,-297 1022.5,-297 1028.5,-303 1028.5,-309 1028.5,-309 1028.5,-321 1028.5,-321 1028.5,-327 1022.5,-333 1016.5,-333"/>
<text text-anchor="middle" x="951.5" y="-311.3" font-family="Times,serif" font-size="14.00">396: addVisualRelation()</text>
</g>
<!-- node_a1e2bbae&#45;&gt;node_f248b59d -->
<g id="edge8" class="edge">
<title>node_a1e2bbae&#45;&gt;node_f248b59d</title>
<path fill="none" stroke="#d55e00" stroke-width="2" d="M1028.66,-308C1155.21,-308 1393,-308 1393,-308 1393,-308 1393,-417.96 1393,-417.96"/>
<polygon fill="#d55e00" stroke="#d55e00" stroke-width="2" points="1389.5,-417.96 1393,-427.96 1396.5,-417.96 1389.5,-417.96"/>
</g>
<!-- node_a1e2bbae&#45;&gt;node_5969ea7b -->
<g id="edge9" class="edge">
<title>node_a1e2bbae&#45;&gt;node_5969ea7b</title>
<path fill="none" stroke="#d55e00" stroke-width="2" d="M1028.59,-326C1028.59,-326 1116.34,-326 1116.34,-326"/>
<polygon fill="#d55e00" stroke="#d55e00" stroke-width="2" points="1116.34,-329.5 1126.34,-326 1116.34,-322.5 1116.34,-329.5"/>
</g>
<!-- node_cccdb5d4 -->
<g id="node8" class="node">
<title>node_cccdb5d4</title>
<path fill="#6db33f" stroke="black" d="M1229,-207C1229,-207 1122,-207 1122,-207 1116,-207 1110,-201 1110,-195 1110,-195 1110,-183 1110,-183 1110,-177 1116,-171 1122,-171 1122,-171 1229,-171 1229,-171 1235,-171 1241,-177 1241,-183 1241,-183 1241,-195 1241,-195 1241,-201 1235,-207 1229,-207"/>
<text text-anchor="middle" x="1175.5" y="-185.3" font-family="Times,serif" font-size="14.00">797: calcBendpoint()</text>
</g>
<!-- node_e4fa0880 -->
<g id="node9" class="node">
<title>node_e4fa0880</title>
<path fill="#6db33f" stroke="black" d="M1463,-226C1463,-226 1322,-226 1322,-226 1316,-226 1310,-220 1310,-214 1310,-214 1310,-202 1310,-202 1310,-196 1316,-190 1322,-190 1322,-190 1463,-190 1463,-190 1469,-190 1475,-196 1475,-202 1475,-202 1475,-214 1475,-214 1475,-220 1469,-226 1463,-226"/>
<text text-anchor="middle" x="1392.5" y="-204.3" font-family="Times,serif" font-size="14.00">751: calcElementPosition()</text>
</g>
<!-- node_14c79b14 -->
<g id="node10" class="node">
<title>node_14c79b14</title>
<path fill="#cccccc" stroke="black" d="M1029,-387C1029,-387 874,-387 874,-387 868,-387 862,-381 862,-375 862,-375 862,-363 862,-363 862,-357 868,-351 874,-351 874,-351 1029,-351 1029,-351 1035,-351 1041,-357 1041,-363 1041,-363 1041,-375 1041,-375 1041,-381 1035,-387 1029,-387"/>
<text text-anchor="middle" x="951.5" y="-365.3" font-family="Times,serif" font-size="14.00">265: checkNestedCollection()</text>
</g>
<!-- node_14c79b14&#45;&gt;node_5969ea7b -->
<g id="edge13" class="edge">
<title>node_14c79b14&#45;&gt;node_5969ea7b</title>
<path fill="none" stroke="#f0e442" stroke-width="2" d="M1036,-350.94C1036,-346.51 1036,-343 1036,-343 1036,-343 1116.32,-343 1116.32,-343"/>
<polygon fill="#f0e442" stroke="#f0e442" stroke-width="2" points="1116.32,-346.5 1126.32,-343 1116.32,-339.5 1116.32,-346.5"/>
</g>
<!-- node_adc0a669 -->
<g id="node11" class="node">
<title>node_adc0a669</title>
<path fill="#6db33f" stroke="black" d="M795.5,-481C795.5,-481 700.5,-481 700.5,-481 694.5,-481 688.5,-475 688.5,-469 688.5,-469 688.5,-457 688.5,-457 688.5,-451 694.5,-445 700.5,-445 700.5,-445 795.5,-445 795.5,-445 801.5,-445 807.5,-451 807.5,-457 807.5,-457 807.5,-469 807.5,-469 807.5,-475 801.5,-481 795.5,-481"/>
<text text-anchor="middle" x="748" y="-459.3" font-family="Times,serif" font-size="14.00">600: createGraph()</text>
</g>
<!-- node_48d0608f -->
<g id="node12" class="node">
<title>node_48d0608f</title>
<path fill="#cccccc" stroke="black" d="M1010.5,-225C1010.5,-225 892.5,-225 892.5,-225 886.5,-225 880.5,-219 880.5,-213 880.5,-213 880.5,-201 880.5,-201 880.5,-195 886.5,-189 892.5,-189 892.5,-189 1010.5,-189 1010.5,-189 1016.5,-189 1022.5,-195 1022.5,-201 1022.5,-201 1022.5,-213 1022.5,-213 1022.5,-219 1016.5,-225 1010.5,-225"/>
<text text-anchor="middle" x="951.5" y="-203.3" font-family="Times,serif" font-size="14.00">772: drawBendpoints()</text>
</g>
<!-- node_48d0608f&#45;&gt;node_cccdb5d4 -->
<g id="edge14" class="edge">
<title>node_48d0608f&#45;&gt;node_cccdb5d4</title>
<path fill="none" stroke="#cc79a7" stroke-width="2" d="M1022.68,-198C1022.68,-198 1099.83,-198 1099.83,-198"/>
<polygon fill="#cc79a7" stroke="#cc79a7" stroke-width="2" points="1099.83,-201.5 1109.83,-198 1099.83,-194.5 1099.83,-201.5"/>
</g>
<!-- node_b98837ac -->
<g id="node17" class="node">
<title>node_b98837ac</title>
<path fill="#cccccc" stroke="black" d="M1237,-261C1237,-261 1114,-261 1114,-261 1108,-261 1102,-255 1102,-249 1102,-249 1102,-237 1102,-237 1102,-231 1108,-225 1114,-225 1114,-225 1237,-225 1237,-225 1243,-225 1249,-231 1249,-237 1249,-237 1249,-249 1249,-249 1249,-255 1243,-261 1237,-261"/>
<text text-anchor="middle" x="1175.5" y="-239.3" font-family="Times,serif" font-size="14.00">812: getCenterBounds()</text>
</g>
<!-- node_48d0608f&#45;&gt;node_b98837ac -->
<g id="edge15" class="edge">
<title>node_48d0608f&#45;&gt;node_b98837ac</title>
<path fill="none" stroke="#cc79a7" stroke-width="2" d="M1022.87,-219C1063.35,-219 1106,-219 1106,-219 1106,-219 1106,-219.58 1106,-219.58"/>
<polygon fill="#cc79a7" stroke="#cc79a7" stroke-width="2" points="1102.5,-214.81 1106,-224.81 1109.5,-214.81 1102.5,-214.81"/>
</g>
<!-- node_ec61d1de -->
<g id="node13" class="node">
<title>node_ec61d1de</title>
<path fill="#cccccc" stroke="black" d="M605.5,-423C605.5,-423 492.5,-423 492.5,-423 486.5,-423 480.5,-417 480.5,-411 480.5,-411 480.5,-399 480.5,-399 480.5,-393 486.5,-387 492.5,-387 492.5,-387 605.5,-387 605.5,-387 611.5,-387 617.5,-393 617.5,-399 617.5,-399 617.5,-411 617.5,-411 617.5,-417 611.5,-423 605.5,-423"/>
<text text-anchor="middle" x="549" y="-401.3" font-family="Times,serif" font-size="14.00">186: drawCollection()</text>
</g>
<!-- node_ec61d1de&#45;&gt;node_3d99c68c -->
<g id="edge17" class="edge">
<title>node_ec61d1de&#45;&gt;node_3d99c68c</title>
<path fill="none" stroke="#d55e00" stroke-width="2" d="M617.57,-420.67C710.51,-420.67 865,-420.67 865,-420.67 865,-420.67 865,-464 865,-464 865,-464 1088.35,-464 1088.35,-464"/>
<polygon fill="#d55e00" stroke="#d55e00" stroke-width="2" points="1088.35,-467.5 1098.35,-464 1088.35,-460.5 1088.35,-467.5"/>
</g>
<!-- node_ec61d1de&#45;&gt;node_a1e2bbae -->
<g id="edge20" class="edge">
<title>node_ec61d1de&#45;&gt;node_a1e2bbae</title>
<path fill="none" stroke="#d55e00" stroke-width="2" d="M617.79,-416C704.96,-416 844,-416 844,-416 844,-416 844,-316 844,-316 844,-316 864.23,-316 864.23,-316"/>
<polygon fill="#d55e00" stroke="#d55e00" stroke-width="2" points="864.23,-319.5 874.23,-316 864.23,-312.5 864.23,-319.5"/>
</g>
<!-- node_ec61d1de&#45;&gt;node_14c79b14 -->
<g id="edge21" class="edge">
<title>node_ec61d1de&#45;&gt;node_14c79b14</title>
<path fill="none" stroke="#d55e00" stroke-width="2" d="M617.61,-418.33C711.09,-418.33 867,-418.33 867,-418.33 867,-418.33 867,-397.09 867,-397.09"/>
<polygon fill="#d55e00" stroke="#d55e00" stroke-width="2" points="870.5,-397.09 867,-387.09 863.5,-397.09 870.5,-397.09"/>
</g>
<!-- node_ec61d1de&#45;&gt;node_adc0a669 -->
<g id="edge22" class="edge">
<title>node_ec61d1de&#45;&gt;node_adc0a669</title>
<path fill="none" stroke="#d55e00" stroke-width="2" d="M613,-423.03C613,-439.4 613,-461 613,-461 613,-461 678.39,-461 678.39,-461"/>
<polygon fill="#d55e00" stroke="#d55e00" stroke-width="2" points="678.39,-464.5 688.39,-461 678.39,-457.5 678.39,-464.5"/>
</g>
<!-- node_8a042b5b -->
<g id="node25" class="node">
<title>node_8a042b5b</title>
<path fill="#6db33f" stroke="black" d="M796.5,-535C796.5,-535 699.5,-535 699.5,-535 693.5,-535 687.5,-529 687.5,-523 687.5,-523 687.5,-511 687.5,-511 687.5,-505 693.5,-499 699.5,-499 699.5,-499 796.5,-499 796.5,-499 802.5,-499 808.5,-505 808.5,-511 808.5,-511 808.5,-523 808.5,-523 808.5,-529 802.5,-535 796.5,-535"/>
<text text-anchor="middle" x="748" y="-513.3" font-family="Times,serif" font-size="14.00">641: layoutGraph()</text>
</g>
<!-- node_ec61d1de&#45;&gt;node_8a042b5b -->
<g id="edge23" class="edge">
<title>node_ec61d1de&#45;&gt;node_8a042b5b</title>
<path fill="none" stroke="#d55e00" stroke-width="2" d="M609,-423.49C609,-455.31 609,-517 609,-517 609,-517 677.44,-517 677.44,-517"/>
<polygon fill="#d55e00" stroke="#d55e00" stroke-width="2" points="677.44,-520.5 687.44,-517 677.44,-513.5 677.44,-520.5"/>
</g>
<!-- node_d5177659 -->
<g id="node27" class="node">
<title>node_d5177659</title>
<path fill="#cccccc" stroke="black" d="M794,-207C794,-207 702,-207 702,-207 696,-207 690,-201 690,-195 690,-195 690,-183 690,-183 690,-177 696,-171 702,-171 702,-171 794,-171 794,-171 800,-171 806,-177 806,-183 806,-183 806,-195 806,-195 806,-201 800,-207 794,-207"/>
<text text-anchor="middle" x="748" y="-185.3" font-family="Times,serif" font-size="14.00">657: layoutView()</text>
</g>
<!-- node_ec61d1de&#45;&gt;node_d5177659 -->
<g id="edge24" class="edge">
<title>node_ec61d1de&#45;&gt;node_d5177659</title>
<path fill="none" stroke="#d55e00" stroke-width="2" d="M617.63,-394.33C635.08,-394.33 649,-394.33 649,-394.33 649,-394.33 649,-189 649,-189 649,-189 679.84,-189 679.84,-189"/>
<polygon fill="#d55e00" stroke="#d55e00" stroke-width="2" points="679.84,-192.5 689.84,-189 679.84,-185.5 679.84,-192.5"/>
</g>
<!-- node_c16c9cad -->
<g id="node29" class="node">
<title>node_c16c9cad</title>
<path fill="#6db33f" stroke="black" d="M790.5,-261C790.5,-261 705.5,-261 705.5,-261 699.5,-261 693.5,-255 693.5,-249 693.5,-249 693.5,-237 693.5,-237 693.5,-231 699.5,-225 705.5,-225 705.5,-225 790.5,-225 790.5,-225 796.5,-225 802.5,-231 802.5,-237 802.5,-237 802.5,-249 802.5,-249 802.5,-255 796.5,-261 790.5,-261"/>
<text text-anchor="middle" x="748" y="-239.3" font-family="Times,serif" font-size="14.00">838: openView()</text>
</g>
<!-- node_ec61d1de&#45;&gt;node_c16c9cad -->
<g id="edge25" class="edge">
<title>node_ec61d1de&#45;&gt;node_c16c9cad</title>
<path fill="none" stroke="#d55e00" stroke-width="2" d="M617.67,-398C638.51,-398 656,-398 656,-398 656,-398 656,-243 656,-243 656,-243 683.42,-243 683.42,-243"/>
<polygon fill="#d55e00" stroke="#d55e00" stroke-width="2" points="683.42,-246.5 693.42,-243 683.42,-239.5 683.42,-246.5"/>
</g>
<!-- node_0e99d3e9 -->
<g id="node31" class="node">
<title>node_0e99d3e9</title>
<path fill="#cccccc" stroke="black" d="M808.5,-409C808.5,-409 687.5,-409 687.5,-409 681.5,-409 675.5,-403 675.5,-397 675.5,-397 675.5,-385 675.5,-385 675.5,-379 681.5,-373 687.5,-373 687.5,-373 808.5,-373 808.5,-373 814.5,-373 820.5,-379 820.5,-385 820.5,-385 820.5,-397 820.5,-397 820.5,-403 814.5,-409 808.5,-409"/>
<text text-anchor="middle" x="748" y="-387.3" font-family="Times,serif" font-size="14.00">291: procesNestedRel()</text>
</g>
<!-- node_ec61d1de&#45;&gt;node_0e99d3e9 -->
<g id="edge26" class="edge">
<title>node_ec61d1de&#45;&gt;node_0e99d3e9</title>
<path fill="none" stroke="#d55e00" stroke-width="2" d="M617.76,-401.67C617.76,-401.67 665.17,-401.67 665.17,-401.67"/>
<polygon fill="#d55e00" stroke="#d55e00" stroke-width="2" points="665.17,-405.17 675.17,-401.67 665.17,-398.17 665.17,-405.17"/>
</g>
<!-- node_b4850931 -->
<g id="node34" class="node">
<title>node_b4850931</title>
<path fill="#6db33f" stroke="black" d="M801,-335C801,-335 695,-335 695,-335 689,-335 683,-329 683,-323 683,-323 683,-311 683,-311 683,-305 689,-299 695,-299 695,-299 801,-299 801,-299 807,-299 813,-305 813,-311 813,-311 813,-323 813,-323 813,-329 807,-335 801,-335"/>
<text text-anchor="middle" x="748" y="-313.3" font-family="Times,serif" font-size="14.00">237: sortCollection()</text>
</g>
<!-- node_ec61d1de&#45;&gt;node_b4850931 -->
<g id="edge27" class="edge">
<title>node_ec61d1de&#45;&gt;node_b4850931</title>
<path fill="none" stroke="#d55e00" stroke-width="2" d="M617.71,-390.67C622.22,-390.67 625,-390.67 625,-390.67 625,-390.67 625,-321.5 625,-321.5 625,-321.5 672.9,-321.5 672.9,-321.5"/>
<polygon fill="#d55e00" stroke="#d55e00" stroke-width="2" points="672.9,-325 682.9,-321.5 672.9,-318 672.9,-325"/>
</g>
<!-- node_3cffce07 -->
<g id="node14" class="node">
<title>node_3cffce07</title>
<path fill="#6db33f" stroke="black" d="M807.5,-153C807.5,-153 688.5,-153 688.5,-153 682.5,-153 676.5,-147 676.5,-141 676.5,-141 676.5,-129 676.5,-129 676.5,-123 682.5,-117 688.5,-117 688.5,-117 807.5,-117 807.5,-117 813.5,-117 819.5,-123 819.5,-129 819.5,-129 819.5,-141 819.5,-141 819.5,-147 813.5,-153 807.5,-153"/>
<text text-anchor="middle" x="748" y="-131.3" font-family="Times,serif" font-size="14.00">963: filterObjectType()</text>
</g>
<!-- node_3055d125&#45;&gt;node_ec61d1de -->
<g id="edge28" class="edge">
<title>node_3055d125&#45;&gt;node_ec61d1de</title>
<path fill="none" stroke="#0072b2" stroke-width="2" d="M403,-369.15C403,-382.74 403,-399 403,-399 403,-399 470.28,-399 470.28,-399"/>
<polygon fill="#0072b2" stroke="#0072b2" stroke-width="2" points="470.28,-402.5 480.28,-399 470.28,-395.5 470.28,-402.5"/>
</g>
<!-- node_f40d8d84 -->
<g id="node19" class="node">
<title>node_f40d8d84</title>
<path fill="#6db33f" stroke="black" d="M605,-207C605,-207 493,-207 493,-207 487,-207 481,-201 481,-195 481,-195 481,-183 481,-183 481,-177 487,-171 493,-171 493,-171 605,-171 605,-171 611,-171 617,-177 617,-183 617,-183 617,-195 617,-195 617,-201 611,-207 605,-207"/>
<text text-anchor="middle" x="549" y="-185.3" font-family="Times,serif" font-size="14.00">465: getEmptyView()</text>
</g>
<!-- node_3055d125&#45;&gt;node_f40d8d84 -->
<g id="edge32" class="edge">
<title>node_3055d125&#45;&gt;node_f40d8d84</title>
<path fill="none" stroke="#0072b2" stroke-width="2" d="M378,-332.94C378,-292.61 378,-198.75 378,-198.75 378,-198.75 470.92,-198.75 470.92,-198.75"/>
<polygon fill="#0072b2" stroke="#0072b2" stroke-width="2" points="470.92,-202.25 480.92,-198.75 470.92,-195.25 470.92,-202.25"/>
</g>
<!-- node_b78fa9e6 -->
<g id="node20" class="node">
<title>node_b78fa9e6</title>
<path fill="#6db33f" stroke="black" d="M589.5,-261C589.5,-261 508.5,-261 508.5,-261 502.5,-261 496.5,-255 496.5,-249 496.5,-249 496.5,-237 496.5,-237 496.5,-231 502.5,-225 508.5,-225 508.5,-225 589.5,-225 589.5,-225 595.5,-225 601.5,-231 601.5,-237 601.5,-237 601.5,-249 601.5,-249 601.5,-255 595.5,-261 589.5,-261"/>
<text text-anchor="middle" x="549" y="-239.3" font-family="Times,serif" font-size="14.00">453: getFolder()</text>
</g>
<!-- node_3055d125&#45;&gt;node_b78fa9e6 -->
<g id="edge34" class="edge">
<title>node_3055d125&#45;&gt;node_b78fa9e6</title>
<path fill="none" stroke="#0072b2" stroke-width="2" d="M403,-332.57C403,-304.18 403,-253 403,-253 403,-253 486.29,-253 486.29,-253"/>
<polygon fill="#0072b2" stroke="#0072b2" stroke-width="2" points="486.29,-256.5 496.29,-253 486.29,-249.5 486.29,-256.5"/>
</g>
<!-- node_35a12a18 -->
<g id="node21" class="node">
<title>node_35a12a18</title>
<path fill="#6db33f" stroke="black" d="M619,-315C619,-315 479,-315 479,-315 473,-315 467,-309 467,-303 467,-303 467,-291 467,-291 467,-285 473,-279 479,-279 479,-279 619,-279 619,-279 625,-279 631,-285 631,-291 631,-291 631,-303 631,-303 631,-309 625,-315 619,-315"/>
<text text-anchor="middle" x="549" y="-293.3" font-family="Times,serif" font-size="14.00">111: getLayoutCollection()</text>
</g>
<!-- node_3055d125&#45;&gt;node_35a12a18 -->
<g id="edge35" class="edge">
<title>node_3055d125&#45;&gt;node_35a12a18</title>
<path fill="none" stroke="#0072b2" stroke-width="2" d="M428.18,-342C453.12,-342 476,-342 476,-342 476,-342 476,-325.04 476,-325.04"/>
<polygon fill="#0072b2" stroke="#0072b2" stroke-width="2" points="479.5,-325.04 476,-315.04 472.5,-325.04 479.5,-325.04"/>
</g>
<!-- node_1e52aebd -->
<g id="node23" class="node">
<title>node_1e52aebd</title>
<path fill="#6db33f" stroke="black" d="M808.5,-589C808.5,-589 687.5,-589 687.5,-589 681.5,-589 675.5,-583 675.5,-577 675.5,-577 675.5,-565 675.5,-565 675.5,-559 681.5,-553 687.5,-553 687.5,-553 808.5,-553 808.5,-553 814.5,-553 820.5,-559 820.5,-565 820.5,-565 820.5,-577 820.5,-577 820.5,-583 814.5,-589 808.5,-589"/>
<text text-anchor="middle" x="748" y="-567.3" font-family="Times,serif" font-size="14.00">492: getSelectedView()</text>
</g>
<!-- node_3055d125&#45;&gt;node_1e52aebd -->
<g id="edge37" class="edge">
<title>node_3055d125&#45;&gt;node_1e52aebd</title>
<path fill="none" stroke="#0072b2" stroke-width="2" d="M378,-369.38C378,-393.28 378,-432 378,-432 378,-432 682,-432 682,-432 682,-432 682,-542.83 682,-542.83"/>
<polygon fill="#0072b2" stroke="#0072b2" stroke-width="2" points="678.5,-542.83 682,-552.83 685.5,-542.83 678.5,-542.83"/>
</g>
<!-- node_de9ee256 -->
<g id="node24" class="node">
<title>node_de9ee256</title>
<path fill="#cccccc" stroke="black" d="M605.5,-369C605.5,-369 492.5,-369 492.5,-369 486.5,-369 480.5,-363 480.5,-357 480.5,-357 480.5,-345 480.5,-345 480.5,-339 486.5,-333 492.5,-333 492.5,-333 605.5,-333 605.5,-333 611.5,-333 617.5,-339 617.5,-345 617.5,-345 617.5,-357 617.5,-357 617.5,-363 611.5,-369 605.5,-369"/>
<text text-anchor="middle" x="549" y="-347.3" font-family="Times,serif" font-size="14.00">153: growCollection()</text>
</g>
<!-- node_3055d125&#45;&gt;node_de9ee256 -->
<g id="edge39" class="edge">
<title>node_3055d125&#45;&gt;node_de9ee256</title>
<path fill="none" stroke="#0072b2" stroke-width="2" d="M428.14,-351C428.14,-351 470.36,-351 470.36,-351"/>
<polygon fill="#0072b2" stroke="#0072b2" stroke-width="2" points="470.36,-354.5 480.36,-351 470.36,-347.5 470.36,-354.5"/>
</g>
<!-- node_31fc1105 -->
<g id="node28" class="node">
<title>node_31fc1105</title>
<path fill="#6db33f" stroke="black" d="M592,-477C592,-477 506,-477 506,-477 500,-477 494,-471 494,-465 494,-465 494,-453 494,-453 494,-447 500,-441 506,-441 506,-441 592,-441 592,-441 598,-441 604,-447 604,-453 604,-453 604,-465 604,-465 604,-471 598,-477 592,-477"/>
<text text-anchor="middle" x="549" y="-455.3" font-family="Times,serif" font-size="14.00">581: loadDagre()</text>
</g>
<!-- node_3055d125&#45;&gt;node_31fc1105 -->
<g id="edge42" class="edge">
<title>node_3055d125&#45;&gt;node_31fc1105</title>
<path fill="none" stroke="#0072b2" stroke-width="2" d="M353,-369.07C353,-397.5 353,-449.5 353,-449.5 353,-449.5 483.88,-449.5 483.88,-449.5"/>
<polygon fill="#0072b2" stroke="#0072b2" stroke-width="2" points="483.88,-453 493.88,-449.5 483.88,-446 483.88,-453"/>
</g>
<!-- node_11896b7c -->
<g id="node32" class="node">
<title>node_11896b7c</title>
<path fill="#cccccc" stroke="black" d="M604.5,-153C604.5,-153 493.5,-153 493.5,-153 487.5,-153 481.5,-147 481.5,-141 481.5,-141 481.5,-129 481.5,-129 481.5,-123 487.5,-117 493.5,-117 493.5,-117 604.5,-117 604.5,-117 610.5,-117 616.5,-123 616.5,-129 616.5,-129 616.5,-141 616.5,-141 616.5,-147 610.5,-153 604.5,-153"/>
<text text-anchor="middle" x="549" y="-131.3" font-family="Times,serif" font-size="14.00">130: selectElements()</text>
</g>
<!-- node_3055d125&#45;&gt;node_11896b7c -->
<g id="edge43" class="edge">
<title>node_3055d125&#45;&gt;node_11896b7c</title>
<path fill="none" stroke="#0072b2" stroke-width="2" d="M353,-332.96C353,-281.04 353,-135 353,-135 353,-135 471.27,-135 471.27,-135"/>
<polygon fill="#0072b2" stroke="#0072b2" stroke-width="2" points="471.27,-138.5 481.27,-135 471.27,-131.5 471.27,-138.5"/>
</g>
<!-- node_af714d54 -->
<g id="node33" class="node">
<title>node_af714d54</title>
<path fill="#cccccc" stroke="black" d="M622,-589C622,-589 476,-589 476,-589 470,-589 464,-583 464,-577 464,-577 464,-565 464,-565 464,-559 470,-553 476,-553 476,-553 622,-553 622,-553 628,-553 634,-559 634,-565 634,-565 634,-577 634,-577 634,-583 628,-589 622,-589"/>
<text text-anchor="middle" x="549" y="-567.3" font-family="Times,serif" font-size="14.00">511: setDefaultParameters()</text>
</g>
<!-- node_3055d125&#45;&gt;node_af714d54 -->
<g id="edge44" class="edge">
<title>node_3055d125&#45;&gt;node_af714d54</title>
<path fill="none" stroke="#0072b2" stroke-width="2" d="M428.07,-360C451.25,-360 472,-360 472,-360 472,-360 472,-542.64 472,-542.64"/>
<polygon fill="#0072b2" stroke="#0072b2" stroke-width="2" points="468.5,-542.64 472,-552.64 475.5,-542.64 468.5,-542.64"/>
</g>
<!-- node_8027f52e -->
<g id="node18" class="node">
<title>node_8027f52e</title>
<path fill="#cccccc" stroke="black" d="M1019.5,-279C1019.5,-279 883.5,-279 883.5,-279 877.5,-279 871.5,-273 871.5,-267 871.5,-267 871.5,-255 871.5,-255 871.5,-249 877.5,-243 883.5,-243 883.5,-243 1019.5,-243 1019.5,-243 1025.5,-243 1031.5,-249 1031.5,-255 1031.5,-255 1031.5,-267 1031.5,-267 1031.5,-273 1025.5,-279 1019.5,-279"/>
<text text-anchor="middle" x="951.5" y="-257.3" font-family="Times,serif" font-size="14.00">716: getElementPosition()</text>
</g>
<!-- node_8027f52e&#45;&gt;node_e4fa0880 -->
<g id="edge45" class="edge">
<title>node_8027f52e&#45;&gt;node_e4fa0880</title>
<path fill="none" stroke="#d55e00" stroke-width="2" d="M1027,-242.85C1027,-229.26 1027,-213 1027,-213 1027,-213 1299.56,-213 1299.56,-213"/>
<polygon fill="#d55e00" stroke="#d55e00" stroke-width="2" points="1299.56,-216.5 1309.56,-213 1299.56,-209.5 1299.56,-216.5"/>
</g>
<!-- node_fc7e8c74 -->
<g id="node22" class="node">
<title>node_fc7e8c74</title>
<path fill="#cccccc" stroke="black" d="M1262,-153C1262,-153 1089,-153 1089,-153 1083,-153 1077,-147 1077,-141 1077,-141 1077,-129 1077,-129 1077,-123 1083,-117 1089,-117 1089,-117 1262,-117 1262,-117 1268,-117 1274,-123 1274,-129 1274,-129 1274,-141 1274,-141 1274,-147 1268,-153 1262,-153"/>
<text text-anchor="middle" x="1175.5" y="-131.3" font-family="Times,serif" font-size="14.00">732: getNestedElementPosition()</text>
</g>
<!-- node_fc7e8c74&#45;&gt;node_e4fa0880 -->
<g id="edge46" class="edge">
<title>node_fc7e8c74&#45;&gt;node_e4fa0880</title>
<path fill="none" stroke="#f0e442" stroke-width="2" d="M1264,-153.03C1264,-171.8 1264,-198.5 1264,-198.5 1264,-198.5 1299.67,-198.5 1299.67,-198.5"/>
<polygon fill="#f0e442" stroke="#f0e442" stroke-width="2" points="1299.67,-202 1309.67,-198.5 1299.67,-195 1299.67,-202"/>
</g>
<!-- node_de9ee256&#45;&gt;node_3cffce07 -->
<g id="edge48" class="edge">
<title>node_de9ee256&#45;&gt;node_3cffce07</title>
<path fill="none" stroke="#d55e00" stroke-width="2" d="M617.57,-339C631.5,-339 642,-339 642,-339 642,-339 642,-141 642,-141 642,-141 666.42,-141 666.42,-141"/>
<polygon fill="#d55e00" stroke="#d55e00" stroke-width="2" points="666.42,-144.5 676.42,-141 666.42,-137.5 666.42,-144.5"/>
</g>
<!-- node_651db162 -->
<g id="node26" class="node">
<title>node_651db162</title>
<path fill="#cccccc" stroke="black" d="M1027.5,-153C1027.5,-153 875.5,-153 875.5,-153 869.5,-153 863.5,-147 863.5,-141 863.5,-141 863.5,-129 863.5,-129 863.5,-123 869.5,-117 875.5,-117 875.5,-117 1027.5,-117 1027.5,-117 1033.5,-117 1039.5,-123 1039.5,-129 1039.5,-129 1039.5,-141 1039.5,-141 1039.5,-147 1033.5,-153 1027.5,-153"/>
<text text-anchor="middle" x="951.5" y="-131.3" font-family="Times,serif" font-size="14.00">693: layoutNestedElements()</text>
</g>
<!-- node_651db162&#45;&gt;node_fc7e8c74 -->
<g id="edge51" class="edge">
<title>node_651db162&#45;&gt;node_fc7e8c74</title>
<path fill="none" stroke="#56b4e9" stroke-width="2" d="M1039.71,-129C1039.71,-129 1066.64,-129 1066.64,-129"/>
<polygon fill="#56b4e9" stroke="#56b4e9" stroke-width="2" points="1066.64,-132.5 1076.64,-129 1066.64,-125.5 1066.64,-132.5"/>
</g>
<!-- node_651db162&#45;&gt;node_651db162 -->
<g id="edge52" class="edge">
<title>node_651db162&#45;&gt;node_651db162</title>
<path fill="none" stroke="#56b4e9" stroke-width="2" d="M863.17,-135C856.91,-135 853,-135 853,-135 853,-135 853,-162 853,-162 853,-162 1065,-162 1065,-162 1065,-162 1065,-141 1065,-141 1065,-141 1049.53,-141 1049.53,-141"/>
<polygon fill="#56b4e9" stroke="#56b4e9" stroke-width="2" points="1049.53,-137.5 1039.53,-141 1049.53,-144.5 1049.53,-137.5"/>
</g>
<!-- node_d5177659&#45;&gt;node_48d0608f -->
<g id="edge53" class="edge">
<title>node_d5177659&#45;&gt;node_48d0608f</title>
<path fill="none" stroke="#e69f00" stroke-width="2" d="M806.04,-195C806.04,-195 870.35,-195 870.35,-195"/>
<polygon fill="#e69f00" stroke="#e69f00" stroke-width="2" points="870.35,-198.5 880.35,-195 870.35,-191.5 870.35,-198.5"/>
</g>
<!-- node_d5177659&#45;&gt;node_8027f52e -->
<g id="edge54" class="edge">
<title>node_d5177659&#45;&gt;node_8027f52e</title>
<path fill="none" stroke="#e69f00" stroke-width="2" d="M806.01,-201C839.88,-201 876,-201 876,-201 876,-201 876,-233 876,-233"/>
<polygon fill="#e69f00" stroke="#e69f00" stroke-width="2" points="872.5,-233 876,-243 879.5,-233 872.5,-233"/>
</g>
<!-- node_d5177659&#45;&gt;node_651db162 -->
<g id="edge55" class="edge">
<title>node_d5177659&#45;&gt;node_651db162</title>
<path fill="none" stroke="#e69f00" stroke-width="2" d="M806.24,-180C836.82,-180 868,-180 868,-180 868,-180 868,-163.04 868,-163.04"/>
<polygon fill="#e69f00" stroke="#e69f00" stroke-width="2" points="871.5,-163.04 868,-153.04 864.5,-163.04 871.5,-163.04"/>
</g>
<!-- node_0e99d3e9&#45;&gt;node_9095f20b -->
<g id="edge56" class="edge">
<title>node_0e99d3e9&#45;&gt;node_9095f20b</title>
<path fill="none" stroke="#e69f00" stroke-width="2" d="M815,-409.16C815,-410.49 815,-411.33 815,-411.33 815,-411.33 859.34,-411.33 859.34,-411.33"/>
<polygon fill="#e69f00" stroke="#e69f00" stroke-width="2" points="859.34,-414.83 869.34,-411.33 859.34,-407.83 859.34,-414.83"/>
</g>
<!-- node_0e99d3e9&#45;&gt;node_f248b59d -->
<g id="edge58" class="edge">
<title>node_0e99d3e9&#45;&gt;node_f248b59d</title>
<path fill="none" stroke="#e69f00" stroke-width="2" d="M820.8,-393C906.71,-393 1038,-393 1038,-393 1038,-393 1038,-431.25 1038,-431.25 1038,-431.25 1321.96,-431.25 1321.96,-431.25"/>
<polygon fill="#e69f00" stroke="#e69f00" stroke-width="2" points="1321.96,-434.75 1331.96,-431.25 1321.96,-427.75 1321.96,-434.75"/>
</g>
<!-- node_0e99d3e9&#45;&gt;node_0e99d3e9 -->
<g id="edge59" class="edge">
<title>node_0e99d3e9&#45;&gt;node_0e99d3e9</title>
<path fill="none" stroke="#e69f00" stroke-width="2" d="M675.18,-405.33C667.83,-405.33 663,-405.33 663,-405.33 663,-405.33 663,-413.67 663,-413.67 663,-413.67 835,-413.67 835,-413.67 835,-413.67 835,-399 835,-399 835,-399 830.63,-399 830.63,-399"/>
<polygon fill="#e69f00" stroke="#e69f00" stroke-width="2" points="830.63,-395.5 820.63,-399 830.63,-402.5 830.63,-395.5"/>
</g>
<!-- node_11896b7c&#45;&gt;node_3cffce07 -->
<g id="edge60" class="edge">
<title>node_11896b7c&#45;&gt;node_3cffce07</title>
<path fill="none" stroke="#f0e442" stroke-width="2" d="M616.65,-129C616.65,-129 666.46,-129 666.46,-129"/>
<polygon fill="#f0e442" stroke="#f0e442" stroke-width="2" points="666.46,-132.5 676.46,-129 666.46,-125.5 666.46,-132.5"/>
</g>
<!-- node_474f4582 -->
<g id="node40" class="node">
<title>node_474f4582</title>
<path fill="#cccccc" stroke="black" d="M792.5,-61C792.5,-61 703.5,-61 703.5,-61 697.5,-61 691.5,-55 691.5,-49 691.5,-49 691.5,-37 691.5,-37 691.5,-31 697.5,-25 703.5,-25 703.5,-25 792.5,-25 792.5,-25 798.5,-25 804.5,-31 804.5,-37 804.5,-37 804.5,-49 804.5,-49 804.5,-55 798.5,-61 792.5,-61"/>
<text text-anchor="middle" x="748" y="-39.3" font-family="Times,serif" font-size="14.00">66: getSelection()</text>
</g>
<!-- node_11896b7c&#45;&gt;node_474f4582 -->
<g id="edge61" class="edge">
<title>node_11896b7c&#45;&gt;node_474f4582</title>
<path fill="none" stroke="#f0e442" stroke-width="2" d="M549,-116.82C549,-90.01 549,-43 549,-43 549,-43 681.24,-43 681.24,-43"/>
<polygon fill="#f0e442" stroke="#f0e442" stroke-width="2" points="681.24,-46.5 691.24,-43 681.24,-39.5 681.24,-46.5"/>
</g>
<!-- node_af714d54&#45;&gt;node_1e52aebd -->
<g id="edge62" class="edge">
<title>node_af714d54&#45;&gt;node_1e52aebd</title>
<path fill="none" stroke="#f0e442" stroke-width="2" d="M634.26,-571C634.26,-571 665.44,-571 665.44,-571"/>
<polygon fill="#f0e442" stroke="#f0e442" stroke-width="2" points="665.44,-574.5 675.44,-571 665.44,-567.5 665.44,-574.5"/>
</g>
<!-- node_ab682b4a -->
<g id="node35" class="node">
<title>node_ab682b4a</title>
<path fill="#6db33f" stroke="black" d="M814,-643C814,-643 682,-643 682,-643 676,-643 670,-637 670,-631 670,-631 670,-619 670,-619 670,-613 676,-607 682,-607 682,-607 814,-607 814,-607 820,-607 826,-613 826,-619 826,-619 826,-631 826,-631 826,-637 820,-643 814,-643"/>
<text text-anchor="middle" x="748" y="-621.3" font-family="Times,serif" font-size="14.00">554: validArchiConcept()</text>
</g>
<!-- node_af714d54&#45;&gt;node_ab682b4a -->
<g id="edge63" class="edge">
<title>node_af714d54&#45;&gt;node_ab682b4a</title>
<path fill="none" stroke="#f0e442" stroke-width="2" d="M549,-589.28C549,-604.95 549,-625 549,-625 549,-625 659.92,-625 659.92,-625"/>
<polygon fill="#f0e442" stroke="#f0e442" stroke-width="2" points="659.92,-628.5 669.92,-625 659.92,-621.5 659.92,-628.5"/>
</g>
<!-- node_3654ef0f -->
<g id="node36" class="node">
<title>node_3654ef0f</title>
<path fill="#966f33" stroke="black" d="M163,-328C163,-328 104,-328 104,-328 98,-328 92,-322 92,-316 92,-316 92,-304 92,-304 92,-298 98,-292 104,-292 104,-292 163,-292 163,-292 169,-292 175,-298 175,-304 175,-304 175,-316 175,-316 175,-322 169,-328 163,-328"/>
<text text-anchor="middle" x="133.5" y="-306.3" font-family="Times,serif" font-size="14.00">0: (global)()</text>
</g>
<!-- node_3654ef0f&#45;&gt;node_3055d125 -->
<g id="edge67" class="edge">
<title>node_3654ef0f&#45;&gt;node_3055d125</title>
<path fill="none" stroke="#cc79a7" stroke-width="2" d="M148,-328.32C148,-336.79 148,-345 148,-345 148,-345 292.88,-345 292.88,-345"/>
<polygon fill="#cc79a7" stroke="#cc79a7" stroke-width="2" points="292.88,-348.5 302.88,-345 292.88,-341.5 292.88,-348.5"/>
</g>
<!-- node_bd44da9b -->
<g id="node37" class="node">
<title>node_bd44da9b</title>
<path fill="#966f33" stroke="black" d="M163,-245C163,-245 104,-245 104,-245 98,-245 92,-239 92,-233 92,-233 92,-221 92,-221 92,-215 98,-209 104,-209 104,-209 163,-209 163,-209 169,-209 175,-215 175,-221 175,-221 175,-233 175,-233 175,-239 169,-245 163,-245"/>
<text text-anchor="middle" x="133.5" y="-223.3" font-family="Times,serif" font-size="14.00">0: (global)()</text>
</g>
<!-- node_bd44da9b&#45;&gt;node_3055d125 -->
<g id="edge68" class="edge">
<title>node_bd44da9b&#45;&gt;node_3055d125</title>
<path fill="none" stroke="#009e73" stroke-width="2" d="M175.23,-235C232.38,-235 328,-235 328,-235 328,-235 328,-322.88 328,-322.88"/>
<polygon fill="#009e73" stroke="#009e73" stroke-width="2" points="324.5,-322.87 328,-332.88 331.5,-322.88 324.5,-322.87"/>
</g>
<!-- node_b4a49c09 -->
<g id="node38" class="node">
<title>node_b4a49c09</title>
<path fill="#cccccc" stroke="black" d="M990.5,-52C990.5,-52 912.5,-52 912.5,-52 906.5,-52 900.5,-46 900.5,-40 900.5,-40 900.5,-28 900.5,-28 900.5,-22 906.5,-16 912.5,-16 912.5,-16 990.5,-16 990.5,-16 996.5,-16 1002.5,-22 1002.5,-28 1002.5,-28 1002.5,-40 1002.5,-40 1002.5,-46 996.5,-52 990.5,-52"/>
<text text-anchor="middle" x="951.5" y="-30.3" font-family="Times,serif" font-size="14.00">85: addObject()</text>
</g>
<!-- node_b4a49c09&#45;&gt;node_b4a49c09 -->
<g id="edge69" class="edge">
<title>node_b4a49c09&#45;&gt;node_b4a49c09</title>
<path fill="none" stroke="#e69f00" stroke-width="2" d="M900.26,-43C889.84,-43 882,-43 882,-43 882,-43 882,-56.5 882,-56.5 882,-56.5 1021,-56.5 1021,-56.5 1021,-56.5 1021,-40 1021,-40 1021,-40 1012.74,-40 1012.74,-40"/>
<polygon fill="#e69f00" stroke="#e69f00" stroke-width="2" points="1012.74,-36.5 1002.74,-40 1012.74,-43.5 1012.74,-36.5"/>
</g>
<!-- node_52d2acad -->
<g id="node39" class="node">
<title>node_52d2acad</title>
<path fill="#6db33f" stroke="black" d="M1211,-52C1211,-52 1140,-52 1140,-52 1134,-52 1128,-46 1128,-40 1128,-40 1128,-28 1128,-28 1128,-22 1134,-16 1140,-16 1140,-16 1211,-16 1211,-16 1217,-16 1223,-22 1223,-28 1223,-28 1223,-40 1223,-40 1223,-46 1217,-52 1211,-52"/>
<text text-anchor="middle" x="1175.5" y="-30.3" font-family="Times,serif" font-size="14.00">167: concept()</text>
</g>
<!-- node_b4a49c09&#45;&gt;node_52d2acad -->
<g id="edge70" class="edge">
<title>node_b4a49c09&#45;&gt;node_52d2acad</title>
<path fill="none" stroke="#e69f00" stroke-width="2" d="M1002.61,-28C1002.61,-28 1117.67,-28 1117.67,-28"/>
<polygon fill="#e69f00" stroke="#e69f00" stroke-width="2" points="1117.67,-31.5 1127.67,-28 1117.67,-24.5 1117.67,-31.5"/>
</g>
<!-- node_474f4582&#45;&gt;node_b4a49c09 -->
<g id="edge71" class="edge">
<title>node_474f4582&#45;&gt;node_b4a49c09</title>
<path fill="none" stroke="#56b4e9" stroke-width="2" d="M804.69,-34C804.69,-34 890.33,-34 890.33,-34"/>
<polygon fill="#56b4e9" stroke="#56b4e9" stroke-width="2" points="890.33,-37.5 900.33,-34 890.33,-30.5 890.33,-37.5"/>
</g>
</g>
</svg>
