<?xml version="1.0" encoding="UTF-8" standalone="no"?>
<!DOCTYPE svg PUBLIC "-//W3C//DTD SVG 1.1//EN"
 "http://www.w3.org/Graphics/SVG/1.1/DTD/svg11.dtd">
<!-- Generated by graphviz version 5.0.0 (0)
 -->
<!-- Title: G Pages: 1 -->
<svg width="1318pt" height="724pt"
 viewBox="0.00 0.00 1318.00 724.00" xmlns="http://www.w3.org/2000/svg" xmlns:xlink="http://www.w3.org/1999/xlink">
<g id="graph0" class="graph" transform="scale(1 1) rotate(0) translate(4 720)">
<title>G</title>
<polygon fill="white" stroke="transparent" points="-4,4 -4,-720 1314,-720 1314,4 -4,4"/>
<g id="clust2" class="cluster">
<title>cluster_e2c52cb0</title>
<polygon fill="none" stroke="black" stroke-dasharray="1,5" points="55,-423 55,-498 213,-498 213,-423 55,-423"/>
<text text-anchor="middle" x="134" y="-482.8" font-family="Times,serif" font-size="14.00">File: expand_view_ids.ajs</text>
</g>
<g id="clust3" class="cluster">
<title>cluster_404117ad</title>
<polygon fill="none" stroke="black" stroke-dasharray="1,5" points="51,-340 51,-415 216,-415 216,-340 51,-340"/>
<text text-anchor="middle" x="133.5" y="-399.8" font-family="Times,serif" font-size="14.00">File: generate_view_ids.ajs</text>
</g>
<g id="clust4" class="cluster">
<title>cluster_a325fa77</title>
<polygon fill="none" stroke="black" stroke-dasharray="1,5" points="295,-109 295,-708 1302,-708 1302,-109 295,-109"/>
<text text-anchor="middle" x="798.5" y="-692.8" font-family="Times,serif" font-size="14.00">File: include_generate_view_visual_id</text>
</g>
<g id="clust5" class="cluster">
<title>cluster_3f5c00ce</title>
<polygon fill="none" stroke="black" stroke-dasharray="1,5" points="57,-257 57,-332 210,-332 210,-257 57,-257"/>
<text text-anchor="middle" x="133.5" y="-316.8" font-family="Times,serif" font-size="14.00">File: layout_view_ids.ajs</text>
</g>
<g id="clust6" class="cluster">
<title>cluster_084b9403</title>
<polygon fill="none" stroke="black" stroke-dasharray="1,5" points="37,-174 37,-249 231,-249 231,-174 37,-174"/>
<text text-anchor="middle" x="134" y="-233.8" font-family="Times,serif" font-size="14.00">File: layout_view_nested_ids.ajs</text>
</g>
<g id="clust7" class="cluster">
<title>cluster_ef69f47d</title>
<polygon fill="none" stroke="black" stroke-dasharray="1,5" points="695,-8 695,-101 1251,-101 1251,-8 695,-8"/>
<text text-anchor="middle" x="973" y="-85.8" font-family="Times,serif" font-size="14.00">File: selection</text>
</g>
<!-- Legend -->
<g id="node1" class="node">
<title>Legend</title>
<polygon fill="none" stroke="black" points="1.5,-145 1.5,-162 266.5,-162 266.5,-145 1.5,-145"/>
<text text-anchor="start" x="81.5" y="-149.8" font-family="Times,serif" font-size="14.00">Code2flow Legend</text>
<polygon fill="none" stroke="black" points="1.5,-57 1.5,-145 266.5,-145 266.5,-57 1.5,-57"/>
<polygon fill="none" stroke="black" points="3.5,-122 3.5,-143 214.5,-143 214.5,-122 3.5,-122"/>
<text text-anchor="start" x="63" y="-128.8" font-family="Times,serif" font-size="14.00">Regular function</text>
<polygon fill="#cccccc" stroke="transparent" points="214.5,-122 214.5,-143 264.5,-143 264.5,-122 214.5,-122"/>
<polygon fill="none" stroke="black" points="214.5,-122 214.5,-143 264.5,-143 264.5,-122 214.5,-122"/>
<polygon fill="none" stroke="black" points="3.5,-101 3.5,-122 214.5,-122 214.5,-101 3.5,-101"/>
<text text-anchor="start" x="15" y="-107.8" font-family="Times,serif" font-size="14.00">Trunk function (nothing calls this)</text>
<polygon fill="#966f33" stroke="transparent" points="214.5,-101 214.5,-122 264.5,-122 264.5,-101 214.5,-101"/>
<polygon fill="none" stroke="black" points="214.5,-101 214.5,-122 264.5,-122 264.5,-101 214.5,-101"/>
<polygon fill="none" stroke="black" points="3.5,-80 3.5,-101 214.5,-101 214.5,-80 3.5,-80"/>
<text text-anchor="start" x="6.5" y="-86.8" font-family="Times,serif" font-size="14.00">Leaf function (this calls nothing else)</text>
<polygon fill="#6db33f" stroke="transparent" points="214.5,-80 214.5,-101 264.5,-101 264.5,-80 214.5,-80"/>
<polygon fill="none" stroke="black" points="214.5,-80 214.5,-101 264.5,-101 264.5,-80 214.5,-80"/>
<polygon fill="none" stroke="black" points="3.5,-59 3.5,-80 214.5,-80 214.5,-59 3.5,-59"/>
<text text-anchor="start" x="73" y="-65.8" font-family="Times,serif" font-size="14.00">Function call</text>
<polygon fill="none" stroke="black" points="214.5,-59 214.5,-80 264.5,-80 264.5,-59 214.5,-59"/>
<text text-anchor="start" x="232" y="-65.8" font-family="Times,serif" font-size="14.00">→</text>
<polygon fill="none" stroke="black" points="2.5,-58 2.5,-144 265.5,-144 265.5,-58 2.5,-58"/>
<polygon fill="none" stroke="black" points="0,-56.5 0,-163.5 267,-163.5 267,-56.5 0,-56.5"/>
</g>
<!-- node_480a1084 -->
<g id="node2" class="node">
<title>node_480a1084</title>
<path fill="#966f33" stroke="black" d="M163,-467C163,-467 104,-467 104,-467 98,-467 92,-461 92,-455 92,-455 92,-443 92,-443 92,-437 98,-431 104,-431 104,-431 163,-431 163,-431 169,-431 175,-437 175,-443 175,-443 175,-455 175,-455 175,-461 169,-467 163,-467"/>
<text text-anchor="middle" x="133.5" y="-445.3" font-family="Times,serif" font-size="14.00">0: (global)()</text>
</g>
<!-- node_927b8bc4 -->
<g id="node14" class="node">
<title>node_927b8bc4</title>
<path fill="#cccccc" stroke="black" d="M416,-342C416,-342 315,-342 315,-342 309,-342 303,-336 303,-330 303,-330 303,-318 303,-318 303,-312 309,-306 315,-306 315,-306 416,-306 416,-306 422,-306 428,-312 428,-318 428,-318 428,-330 428,-330 428,-336 422,-342 416,-342"/>
<text text-anchor="middle" x="365.5" y="-320.3" font-family="Times,serif" font-size="14.00">37: generate_view()</text>
</g>
<!-- node_480a1084&#45;&gt;node_927b8bc4 -->
<g id="edge1" class="edge">
<title>node_480a1084&#45;&gt;node_927b8bc4</title>
<path fill="none" stroke="#f0e442" stroke-width="2" d="M175.25,-434.33C234.27,-434.33 335,-434.33 335,-434.33 335,-434.33 335,-352.22 335,-352.22"/>
<polygon fill="#f0e442" stroke="#f0e442" stroke-width="2" points="338.5,-352.22 335,-342.22 331.5,-352.22 338.5,-352.22"/>
</g>
<!-- node_3e8909a4 -->
<g id="node3" class="node">
<title>node_3e8909a4</title>
<path fill="#966f33" stroke="black" d="M163,-384C163,-384 104,-384 104,-384 98,-384 92,-378 92,-372 92,-372 92,-360 92,-360 92,-354 98,-348 104,-348 104,-348 163,-348 163,-348 169,-348 175,-354 175,-360 175,-360 175,-372 175,-372 175,-378 169,-384 163,-384"/>
<text text-anchor="middle" x="133.5" y="-362.3" font-family="Times,serif" font-size="14.00">0: (global)()</text>
</g>
<!-- node_3e8909a4&#45;&gt;node_927b8bc4 -->
<g id="edge2" class="edge">
<title>node_3e8909a4&#45;&gt;node_927b8bc4</title>
<path fill="none" stroke="#f0e442" stroke-width="2" d="M120,-347.58C120,-338.72 120,-330 120,-330 120,-330 292.91,-330 292.91,-330"/>
<polygon fill="#f0e442" stroke="#f0e442" stroke-width="2" points="292.91,-333.5 302.91,-330 292.91,-326.5 292.91,-333.5"/>
</g>
<!-- node_99ce8b09 -->
<g id="node4" class="node">
<title>node_99ce8b09</title>
<path fill="#6db33f" stroke="black" d="M1252.5,-405C1252.5,-405 1138.5,-405 1138.5,-405 1132.5,-405 1126.5,-399 1126.5,-393 1126.5,-393 1126.5,-381 1126.5,-381 1126.5,-375 1132.5,-369 1138.5,-369 1138.5,-369 1252.5,-369 1252.5,-369 1258.5,-369 1264.5,-375 1264.5,-381 1264.5,-381 1264.5,-393 1264.5,-393 1264.5,-399 1258.5,-405 1252.5,-405"/>
<text text-anchor="middle" x="1195.5" y="-383.3" font-family="Times,serif" font-size="14.00">373: addVisualChild()</text>
</g>
<!-- node_46e98921 -->
<g id="node5" class="node">
<title>node_46e98921</title>
<path fill="#6db33f" stroke="black" d="M1260.5,-468C1260.5,-468 1130.5,-468 1130.5,-468 1124.5,-468 1118.5,-462 1118.5,-456 1118.5,-456 1118.5,-444 1118.5,-444 1118.5,-438 1124.5,-432 1130.5,-432 1130.5,-432 1260.5,-432 1260.5,-432 1266.5,-432 1272.5,-438 1272.5,-444 1272.5,-444 1272.5,-456 1272.5,-456 1272.5,-462 1266.5,-468 1260.5,-468"/>
<text text-anchor="middle" x="1195.5" y="-446.3" font-family="Times,serif" font-size="14.00">354: addVisualElement()</text>
</g>
<!-- node_283700ef -->
<g id="node6" class="node">
<title>node_283700ef</title>
<path fill="#cccccc" stroke="black" d="M1043,-405C1043,-405 903,-405 903,-405 897,-405 891,-399 891,-393 891,-393 891,-381 891,-381 891,-375 897,-369 903,-369 903,-369 1043,-369 1043,-369 1049,-369 1055,-375 1055,-381 1055,-381 1055,-393 1055,-393 1055,-399 1049,-405 1043,-405"/>
<text text-anchor="middle" x="973" y="-383.3" font-family="Times,serif" font-size="14.00">328: addVisualNestedRel()</text>
</g>
<!-- node_283700ef&#45;&gt;node_99ce8b09 -->
<g id="edge3" class="edge">
<title>node_283700ef&#45;&gt;node_99ce8b09</title>
<path fill="none" stroke="#cc79a7" stroke-width="2" d="M1055.22,-381C1055.22,-381 1116.39,-381 1116.39,-381"/>
<polygon fill="#cc79a7" stroke="#cc79a7" stroke-width="2" points="1116.39,-384.5 1126.39,-381 1116.39,-377.5 1116.39,-384.5"/>
</g>
<!-- node_283700ef&#45;&gt;node_46e98921 -->
<g id="edge4" class="edge">
<title>node_283700ef&#45;&gt;node_46e98921</title>
<path fill="none" stroke="#cc79a7" stroke-width="2" d="M1055.02,-393C1090.04,-393 1123,-393 1123,-393 1123,-393 1123,-421.96 1123,-421.96"/>
<polygon fill="#cc79a7" stroke="#cc79a7" stroke-width="2" points="1119.5,-421.96 1123,-431.96 1126.5,-421.96 1119.5,-421.96"/>
</g>
<!-- node_532fad22 -->
<g id="node7" class="node">
<title>node_532fad22</title>
<path fill="#6db33f" stroke="black" d="M824.5,-515C824.5,-515 694.5,-515 694.5,-515 688.5,-515 682.5,-509 682.5,-503 682.5,-503 682.5,-491 682.5,-491 682.5,-485 688.5,-479 694.5,-479 694.5,-479 824.5,-479 824.5,-479 830.5,-479 836.5,-485 836.5,-491 836.5,-491 836.5,-503 836.5,-503 836.5,-509 830.5,-515 824.5,-515"/>
<text text-anchor="middle" x="759.5" y="-493.3" font-family="Times,serif" font-size="14.00">396: addVisualRelation()</text>
</g>
<!-- node_dc906517 -->
<g id="node8" class="node">
<title>node_dc906517</title>
<path fill="#6db33f" stroke="black" d="M1249,-180C1249,-180 1142,-180 1142,-180 1136,-180 1130,-174 1130,-168 1130,-168 1130,-156 1130,-156 1130,-150 1136,-144 1142,-144 1142,-144 1249,-144 1249,-144 1255,-144 1261,-150 1261,-156 1261,-156 1261,-168 1261,-168 1261,-174 1255,-180 1249,-180"/>
<text text-anchor="middle" x="1195.5" y="-158.3" font-family="Times,serif" font-size="14.00">797: calcBendpoint()</text>
</g>
<!-- node_d4e6578a -->
<g id="node9" class="node">
<title>node_d4e6578a</title>
<path fill="#6db33f" stroke="black" d="M837,-569C837,-569 682,-569 682,-569 676,-569 670,-563 670,-557 670,-557 670,-545 670,-545 670,-539 676,-533 682,-533 682,-533 837,-533 837,-533 843,-533 849,-539 849,-545 849,-545 849,-557 849,-557 849,-563 843,-569 837,-569"/>
<text text-anchor="middle" x="759.5" y="-547.3" font-family="Times,serif" font-size="14.00">265: checkNestedCollection()</text>
</g>
<!-- node_023cbb44 -->
<g id="node10" class="node">
<title>node_023cbb44</title>
<path fill="#6db33f" stroke="black" d="M807,-623C807,-623 712,-623 712,-623 706,-623 700,-617 700,-611 700,-611 700,-599 700,-599 700,-593 706,-587 712,-587 712,-587 807,-587 807,-587 813,-587 819,-593 819,-599 819,-599 819,-611 819,-611 819,-617 813,-623 807,-623"/>
<text text-anchor="middle" x="759.5" y="-601.3" font-family="Times,serif" font-size="14.00">600: createGraph()</text>
</g>
<!-- node_41ee46b5 -->
<g id="node11" class="node">
<title>node_41ee46b5</title>
<path fill="#cccccc" stroke="black" d="M1032,-207C1032,-207 914,-207 914,-207 908,-207 902,-201 902,-195 902,-195 902,-183 902,-183 902,-177 908,-171 914,-171 914,-171 1032,-171 1032,-171 1038,-171 1044,-177 1044,-183 1044,-183 1044,-195 1044,-195 1044,-201 1038,-207 1032,-207"/>
<text text-anchor="middle" x="973" y="-185.3" font-family="Times,serif" font-size="14.00">772: drawBendpoints()</text>
</g>
<!-- node_41ee46b5&#45;&gt;node_dc906517 -->
<g id="edge5" class="edge">
<title>node_41ee46b5&#45;&gt;node_dc906517</title>
<path fill="none" stroke="#0072b2" stroke-width="2" d="M1044.01,-175.5C1044.01,-175.5 1119.69,-175.5 1119.69,-175.5"/>
<polygon fill="#0072b2" stroke="#0072b2" stroke-width="2" points="1119.69,-179 1129.69,-175.5 1119.69,-172 1119.69,-179"/>
</g>
<!-- node_0eb636e6 -->
<g id="node15" class="node">
<title>node_0eb636e6</title>
<path fill="#cccccc" stroke="black" d="M1257,-234C1257,-234 1134,-234 1134,-234 1128,-234 1122,-228 1122,-222 1122,-222 1122,-210 1122,-210 1122,-204 1128,-198 1134,-198 1134,-198 1257,-198 1257,-198 1263,-198 1269,-204 1269,-210 1269,-210 1269,-222 1269,-222 1269,-228 1263,-234 1257,-234"/>
<text text-anchor="middle" x="1195.5" y="-212.3" font-family="Times,serif" font-size="14.00">812: getCenterBounds()</text>
</g>
<!-- node_41ee46b5&#45;&gt;node_0eb636e6 -->
<g id="edge6" class="edge">
<title>node_41ee46b5&#45;&gt;node_0eb636e6</title>
<path fill="none" stroke="#0072b2" stroke-width="2" d="M1044.01,-202.5C1044.01,-202.5 1111.72,-202.5 1111.72,-202.5"/>
<polygon fill="#0072b2" stroke="#0072b2" stroke-width="2" points="1111.72,-206 1121.72,-202.5 1111.72,-199 1111.72,-206"/>
</g>
<!-- node_91d467bb -->
<g id="node12" class="node">
<title>node_91d467bb</title>
<path fill="#cccccc" stroke="black" d="M605.5,-477C605.5,-477 492.5,-477 492.5,-477 486.5,-477 480.5,-471 480.5,-465 480.5,-465 480.5,-453 480.5,-453 480.5,-447 486.5,-441 492.5,-441 492.5,-441 605.5,-441 605.5,-441 611.5,-441 617.5,-447 617.5,-453 617.5,-453 617.5,-465 617.5,-465 617.5,-471 611.5,-477 605.5,-477"/>
<text text-anchor="middle" x="549" y="-455.3" font-family="Times,serif" font-size="14.00">186: drawCollection()</text>
</g>
<!-- node_91d467bb&#45;&gt;node_46e98921 -->
<g id="edge8" class="edge">
<title>node_91d467bb&#45;&gt;node_46e98921</title>
<path fill="none" stroke="#009e73" stroke-width="2" d="M617.57,-463.5C617.57,-463.5 1108.41,-463.5 1108.41,-463.5"/>
<polygon fill="#009e73" stroke="#009e73" stroke-width="2" points="1108.41,-467 1118.41,-463.5 1108.41,-460 1108.41,-467"/>
</g>
<!-- node_91d467bb&#45;&gt;node_532fad22 -->
<g id="edge11" class="edge">
<title>node_91d467bb&#45;&gt;node_532fad22</title>
<path fill="none" stroke="#009e73" stroke-width="2" d="M617.57,-470.25C654.27,-470.25 692,-470.25 692,-470.25 692,-470.25 692,-471.1 692,-471.1"/>
<polygon fill="#009e73" stroke="#009e73" stroke-width="2" points="688.5,-468.71 692,-478.71 695.5,-468.71 688.5,-468.71"/>
</g>
<!-- node_91d467bb&#45;&gt;node_d4e6578a -->
<g id="edge12" class="edge">
<title>node_91d467bb&#45;&gt;node_d4e6578a</title>
<path fill="none" stroke="#009e73" stroke-width="2" d="M617.53,-472.5C647.08,-472.5 675,-472.5 675,-472.5 675,-472.5 675,-522.79 675,-522.79"/>
<polygon fill="#009e73" stroke="#009e73" stroke-width="2" points="671.5,-522.79 675,-532.79 678.5,-522.79 671.5,-522.79"/>
</g>
<!-- node_91d467bb&#45;&gt;node_023cbb44 -->
<g id="edge13" class="edge">
<title>node_91d467bb&#45;&gt;node_023cbb44</title>
<path fill="none" stroke="#009e73" stroke-width="2" d="M617.56,-474.75C642.18,-474.75 664,-474.75 664,-474.75 664,-474.75 664,-592.67 664,-592.67 664,-592.67 689.83,-592.67 689.83,-592.67"/>
<polygon fill="#009e73" stroke="#009e73" stroke-width="2" points="689.83,-596.17 699.83,-592.67 689.83,-589.17 689.83,-596.17"/>
</g>
<!-- node_f7ba4981 -->
<g id="node22" class="node">
<title>node_f7ba4981</title>
<path fill="#6db33f" stroke="black" d="M808,-207C808,-207 711,-207 711,-207 705,-207 699,-201 699,-195 699,-195 699,-183 699,-183 699,-177 705,-171 711,-171 711,-171 808,-171 808,-171 814,-171 820,-177 820,-183 820,-183 820,-195 820,-195 820,-201 814,-207 808,-207"/>
<text text-anchor="middle" x="759.5" y="-185.3" font-family="Times,serif" font-size="14.00">641: layoutGraph()</text>
</g>
<!-- node_91d467bb&#45;&gt;node_f7ba4981 -->
<g id="edge14" class="edge">
<title>node_91d467bb&#45;&gt;node_f7ba4981</title>
<path fill="none" stroke="#009e73" stroke-width="2" d="M617.68,-445.5C633.61,-445.5 646,-445.5 646,-445.5 646,-445.5 646,-189 646,-189 646,-189 688.76,-189 688.76,-189"/>
<polygon fill="#009e73" stroke="#009e73" stroke-width="2" points="688.76,-192.5 698.76,-189 688.76,-185.5 688.76,-192.5"/>
</g>
<!-- node_c1bd9e67 -->
<g id="node24" class="node">
<title>node_c1bd9e67</title>
<path fill="#cccccc" stroke="black" d="M805.5,-261C805.5,-261 713.5,-261 713.5,-261 707.5,-261 701.5,-255 701.5,-249 701.5,-249 701.5,-237 701.5,-237 701.5,-231 707.5,-225 713.5,-225 713.5,-225 805.5,-225 805.5,-225 811.5,-225 817.5,-231 817.5,-237 817.5,-237 817.5,-249 817.5,-249 817.5,-255 811.5,-261 805.5,-261"/>
<text text-anchor="middle" x="759.5" y="-239.3" font-family="Times,serif" font-size="14.00">657: layoutView()</text>
</g>
<!-- node_91d467bb&#45;&gt;node_c1bd9e67 -->
<g id="edge15" class="edge">
<title>node_91d467bb&#45;&gt;node_c1bd9e67</title>
<path fill="none" stroke="#009e73" stroke-width="2" d="M617.7,-450C636.6,-450 652,-450 652,-450 652,-450 652,-243 652,-243 652,-243 691.35,-243 691.35,-243"/>
<polygon fill="#009e73" stroke="#009e73" stroke-width="2" points="691.35,-246.5 701.35,-243 691.35,-239.5 691.35,-246.5"/>
</g>
<!-- node_37584576 -->
<g id="node26" class="node">
<title>node_37584576</title>
<path fill="#6db33f" stroke="black" d="M802,-315C802,-315 717,-315 717,-315 711,-315 705,-309 705,-303 705,-303 705,-291 705,-291 705,-285 711,-279 717,-279 717,-279 802,-279 802,-279 808,-279 814,-285 814,-291 814,-291 814,-303 814,-303 814,-309 808,-315 802,-315"/>
<text text-anchor="middle" x="759.5" y="-293.3" font-family="Times,serif" font-size="14.00">838: openView()</text>
</g>
<!-- node_91d467bb&#45;&gt;node_37584576 -->
<g id="edge16" class="edge">
<title>node_91d467bb&#45;&gt;node_37584576</title>
<path fill="none" stroke="#009e73" stroke-width="2" d="M617.72,-454.5C639.49,-454.5 658,-454.5 658,-454.5 658,-454.5 658,-297 658,-297 658,-297 694.89,-297 694.89,-297"/>
<polygon fill="#009e73" stroke="#009e73" stroke-width="2" points="694.89,-300.5 704.89,-297 694.89,-293.5 694.89,-300.5"/>
</g>
<!-- node_84d7db4f -->
<g id="node27" class="node">
<title>node_84d7db4f</title>
<path fill="#cccccc" stroke="black" d="M820,-369C820,-369 699,-369 699,-369 693,-369 687,-363 687,-357 687,-357 687,-345 687,-345 687,-339 693,-333 699,-333 699,-333 820,-333 820,-333 826,-333 832,-339 832,-345 832,-345 832,-357 832,-357 832,-363 826,-369 820,-369"/>
<text text-anchor="middle" x="759.5" y="-347.3" font-family="Times,serif" font-size="14.00">291: procesNestedRel()</text>
</g>
<!-- node_91d467bb&#45;&gt;node_84d7db4f -->
<g id="edge17" class="edge">
<title>node_91d467bb&#45;&gt;node_84d7db4f</title>
<path fill="none" stroke="#009e73" stroke-width="2" d="M617.85,-459C653.64,-459 690,-459 690,-459 690,-459 690,-379.32 690,-379.32"/>
<polygon fill="#009e73" stroke="#009e73" stroke-width="2" points="693.5,-379.32 690,-369.32 686.5,-379.32 693.5,-379.32"/>
</g>
<!-- node_8c029fb3 -->
<g id="node30" class="node">
<title>node_8c029fb3</title>
<path fill="#6db33f" stroke="black" d="M812.5,-441C812.5,-441 706.5,-441 706.5,-441 700.5,-441 694.5,-435 694.5,-429 694.5,-429 694.5,-417 694.5,-417 694.5,-411 700.5,-405 706.5,-405 706.5,-405 812.5,-405 812.5,-405 818.5,-405 824.5,-411 824.5,-417 824.5,-417 824.5,-429 824.5,-429 824.5,-435 818.5,-441 812.5,-441"/>
<text text-anchor="middle" x="759.5" y="-419.3" font-family="Times,serif" font-size="14.00">237: sortCollection()</text>
</g>
<!-- node_91d467bb&#45;&gt;node_8c029fb3 -->
<g id="edge18" class="edge">
<title>node_91d467bb&#45;&gt;node_8c029fb3</title>
<path fill="none" stroke="#009e73" stroke-width="2" d="M611,-440.63C611,-438.84 611,-437.67 611,-437.67 611,-437.67 684.37,-437.67 684.37,-437.67"/>
<polygon fill="#009e73" stroke="#009e73" stroke-width="2" points="684.37,-441.17 694.37,-437.67 684.37,-434.17 684.37,-441.17"/>
</g>
<!-- node_5d6c382f -->
<g id="node13" class="node">
<title>node_5d6c382f</title>
<path fill="#6db33f" stroke="black" d="M819,-153C819,-153 700,-153 700,-153 694,-153 688,-147 688,-141 688,-141 688,-129 688,-129 688,-123 694,-117 700,-117 700,-117 819,-117 819,-117 825,-117 831,-123 831,-129 831,-129 831,-141 831,-141 831,-147 825,-153 819,-153"/>
<text text-anchor="middle" x="759.5" y="-131.3" font-family="Times,serif" font-size="14.00">963: filterObjectType()</text>
</g>
<!-- node_927b8bc4&#45;&gt;node_91d467bb -->
<g id="edge19" class="edge">
<title>node_927b8bc4&#45;&gt;node_91d467bb</title>
<path fill="none" stroke="#f0e442" stroke-width="2" d="M366,-342.08C366,-377.8 366,-454 366,-454 366,-454 470.34,-454 470.34,-454"/>
<polygon fill="#f0e442" stroke="#f0e442" stroke-width="2" points="470.34,-457.5 480.34,-454 470.34,-450.5 470.34,-457.5"/>
</g>
<!-- node_7aeae3c3 -->
<g id="node17" class="node">
<title>node_7aeae3c3</title>
<path fill="#6db33f" stroke="black" d="M605,-207C605,-207 493,-207 493,-207 487,-207 481,-201 481,-195 481,-195 481,-183 481,-183 481,-177 487,-171 493,-171 493,-171 605,-171 605,-171 611,-171 617,-177 617,-183 617,-183 617,-195 617,-195 617,-201 611,-207 605,-207"/>
<text text-anchor="middle" x="549" y="-185.3" font-family="Times,serif" font-size="14.00">465: getEmptyView()</text>
</g>
<!-- node_927b8bc4&#45;&gt;node_7aeae3c3 -->
<g id="edge23" class="edge">
<title>node_927b8bc4&#45;&gt;node_7aeae3c3</title>
<path fill="none" stroke="#f0e442" stroke-width="2" d="M378,-305.99C378,-270.41 378,-194.5 378,-194.5 378,-194.5 470.92,-194.5 470.92,-194.5"/>
<polygon fill="#f0e442" stroke="#f0e442" stroke-width="2" points="470.92,-198 480.92,-194.5 470.92,-191 470.92,-198"/>
</g>
<!-- node_c469b825 -->
<g id="node18" class="node">
<title>node_c469b825</title>
<path fill="#6db33f" stroke="black" d="M589.5,-261C589.5,-261 508.5,-261 508.5,-261 502.5,-261 496.5,-255 496.5,-249 496.5,-249 496.5,-237 496.5,-237 496.5,-231 502.5,-225 508.5,-225 508.5,-225 589.5,-225 589.5,-225 595.5,-225 601.5,-231 601.5,-237 601.5,-237 601.5,-249 601.5,-249 601.5,-255 595.5,-261 589.5,-261"/>
<text text-anchor="middle" x="549" y="-239.3" font-family="Times,serif" font-size="14.00">453: getFolder()</text>
</g>
<!-- node_927b8bc4&#45;&gt;node_c469b825 -->
<g id="edge25" class="edge">
<title>node_927b8bc4&#45;&gt;node_c469b825</title>
<path fill="none" stroke="#f0e442" stroke-width="2" d="M403,-305.62C403,-281.72 403,-243 403,-243 403,-243 486.29,-243 486.29,-243"/>
<polygon fill="#f0e442" stroke="#f0e442" stroke-width="2" points="486.29,-246.5 496.29,-243 486.29,-239.5 486.29,-246.5"/>
</g>
<!-- node_01c8863b -->
<g id="node19" class="node">
<title>node_01c8863b</title>
<path fill="#6db33f" stroke="black" d="M619,-315C619,-315 479,-315 479,-315 473,-315 467,-309 467,-303 467,-303 467,-291 467,-291 467,-285 473,-279 479,-279 479,-279 619,-279 619,-279 625,-279 631,-285 631,-291 631,-291 631,-303 631,-303 631,-309 625,-315 619,-315"/>
<text text-anchor="middle" x="549" y="-293.3" font-family="Times,serif" font-size="14.00">111: getLayoutCollection()</text>
</g>
<!-- node_927b8bc4&#45;&gt;node_01c8863b -->
<g id="edge26" class="edge">
<title>node_927b8bc4&#45;&gt;node_01c8863b</title>
<path fill="none" stroke="#f0e442" stroke-width="2" d="M428.14,-310.5C428.14,-310.5 456.85,-310.5 456.85,-310.5"/>
<polygon fill="#f0e442" stroke="#f0e442" stroke-width="2" points="456.85,-314 466.85,-310.5 456.85,-307 456.85,-314"/>
</g>
<!-- node_6957834a -->
<g id="node21" class="node">
<title>node_6957834a</title>
<path fill="#cccccc" stroke="black" d="M605.5,-369C605.5,-369 492.5,-369 492.5,-369 486.5,-369 480.5,-363 480.5,-357 480.5,-357 480.5,-345 480.5,-345 480.5,-339 486.5,-333 492.5,-333 492.5,-333 605.5,-333 605.5,-333 611.5,-333 617.5,-339 617.5,-345 617.5,-345 617.5,-357 617.5,-357 617.5,-363 611.5,-369 605.5,-369"/>
<text text-anchor="middle" x="549" y="-347.3" font-family="Times,serif" font-size="14.00">153: growCollection()</text>
</g>
<!-- node_927b8bc4&#45;&gt;node_6957834a -->
<g id="edge28" class="edge">
<title>node_927b8bc4&#45;&gt;node_6957834a</title>
<path fill="none" stroke="#f0e442" stroke-width="2" d="M428.14,-336C428.14,-336 470.36,-336 470.36,-336"/>
<polygon fill="#f0e442" stroke="#f0e442" stroke-width="2" points="470.36,-339.5 480.36,-336 470.36,-332.5 470.36,-339.5"/>
</g>
<!-- node_b05e97ee -->
<g id="node25" class="node">
<title>node_b05e97ee</title>
<path fill="#6db33f" stroke="black" d="M592,-423C592,-423 506,-423 506,-423 500,-423 494,-417 494,-411 494,-411 494,-399 494,-399 494,-393 500,-387 506,-387 506,-387 592,-387 592,-387 598,-387 604,-393 604,-399 604,-399 604,-411 604,-411 604,-417 598,-423 592,-423"/>
<text text-anchor="middle" x="549" y="-401.3" font-family="Times,serif" font-size="14.00">581: loadDagre()</text>
</g>
<!-- node_927b8bc4&#45;&gt;node_b05e97ee -->
<g id="edge31" class="edge">
<title>node_927b8bc4&#45;&gt;node_b05e97ee</title>
<path fill="none" stroke="#f0e442" stroke-width="2" d="M397,-342.38C397,-366.28 397,-405 397,-405 397,-405 483.69,-405 483.69,-405"/>
<polygon fill="#f0e442" stroke="#f0e442" stroke-width="2" points="483.69,-408.5 493.69,-405 483.69,-401.5 483.69,-408.5"/>
</g>
<!-- node_184d7984 -->
<g id="node28" class="node">
<title>node_184d7984</title>
<path fill="#cccccc" stroke="black" d="M604.5,-153C604.5,-153 493.5,-153 493.5,-153 487.5,-153 481.5,-147 481.5,-141 481.5,-141 481.5,-129 481.5,-129 481.5,-123 487.5,-117 493.5,-117 493.5,-117 604.5,-117 604.5,-117 610.5,-117 616.5,-123 616.5,-129 616.5,-129 616.5,-141 616.5,-141 616.5,-147 610.5,-153 604.5,-153"/>
<text text-anchor="middle" x="549" y="-131.3" font-family="Times,serif" font-size="14.00">130: selectElements()</text>
</g>
<!-- node_927b8bc4&#45;&gt;node_184d7984 -->
<g id="edge32" class="edge">
<title>node_927b8bc4&#45;&gt;node_184d7984</title>
<path fill="none" stroke="#f0e442" stroke-width="2" d="M353,-305.88C353,-258.57 353,-135 353,-135 353,-135 471.27,-135 471.27,-135"/>
<polygon fill="#f0e442" stroke="#f0e442" stroke-width="2" points="471.27,-138.5 481.27,-135 471.27,-131.5 471.27,-138.5"/>
</g>
<!-- node_5e81a326 -->
<g id="node29" class="node">
<title>node_5e81a326</title>
<path fill="#cccccc" stroke="black" d="M622,-604C622,-604 476,-604 476,-604 470,-604 464,-598 464,-592 464,-592 464,-580 464,-580 464,-574 470,-568 476,-568 476,-568 622,-568 622,-568 628,-568 634,-574 634,-580 634,-580 634,-592 634,-592 634,-598 628,-604 622,-604"/>
<text text-anchor="middle" x="549" y="-582.3" font-family="Times,serif" font-size="14.00">511: setDefaultParameters()</text>
</g>
<!-- node_927b8bc4&#45;&gt;node_5e81a326 -->
<g id="edge33" class="edge">
<title>node_927b8bc4&#45;&gt;node_5e81a326</title>
<path fill="none" stroke="#f0e442" stroke-width="2" d="M428.3,-339C452.29,-339 474,-339 474,-339 474,-339 474,-557.84 474,-557.84"/>
<polygon fill="#f0e442" stroke="#f0e442" stroke-width="2" points="470.5,-557.84 474,-567.84 477.5,-557.84 470.5,-557.84"/>
</g>
<!-- node_4a0ee85b -->
<g id="node16" class="node">
<title>node_4a0ee85b</title>
<path fill="#6db33f" stroke="black" d="M1041,-261C1041,-261 905,-261 905,-261 899,-261 893,-255 893,-249 893,-249 893,-237 893,-237 893,-231 899,-225 905,-225 905,-225 1041,-225 1041,-225 1047,-225 1053,-231 1053,-237 1053,-237 1053,-249 1053,-249 1053,-255 1047,-261 1041,-261"/>
<text text-anchor="middle" x="973" y="-239.3" font-family="Times,serif" font-size="14.00">716: getElementPosition()</text>
</g>
<!-- node_c0a139a3 -->
<g id="node20" class="node">
<title>node_c0a139a3</title>
<path fill="#6db33f" stroke="black" d="M1282,-315C1282,-315 1109,-315 1109,-315 1103,-315 1097,-309 1097,-303 1097,-303 1097,-291 1097,-291 1097,-285 1103,-279 1109,-279 1109,-279 1282,-279 1282,-279 1288,-279 1294,-285 1294,-291 1294,-291 1294,-303 1294,-303 1294,-309 1288,-315 1282,-315"/>
<text text-anchor="middle" x="1195.5" y="-293.3" font-family="Times,serif" font-size="14.00">732: getNestedElementPosition()</text>
</g>
<!-- node_6957834a&#45;&gt;node_5d6c382f -->
<g id="edge34" class="edge">
<title>node_6957834a&#45;&gt;node_5d6c382f</title>
<path fill="none" stroke="#56b4e9" stroke-width="2" d="M617.51,-345C630.43,-345 640,-345 640,-345 640,-345 640,-141 640,-141 640,-141 677.92,-141 677.92,-141"/>
<polygon fill="#56b4e9" stroke="#56b4e9" stroke-width="2" points="677.92,-144.5 687.92,-141 677.92,-137.5 677.92,-144.5"/>
</g>
<!-- node_5e463932 -->
<g id="node23" class="node">
<title>node_5e463932</title>
<path fill="#cccccc" stroke="black" d="M1049,-315C1049,-315 897,-315 897,-315 891,-315 885,-309 885,-303 885,-303 885,-291 885,-291 885,-285 891,-279 897,-279 897,-279 1049,-279 1049,-279 1055,-279 1061,-285 1061,-291 1061,-291 1061,-303 1061,-303 1061,-309 1055,-315 1049,-315"/>
<text text-anchor="middle" x="973" y="-293.3" font-family="Times,serif" font-size="14.00">693: layoutNestedElements()</text>
</g>
<!-- node_5e463932&#45;&gt;node_c0a139a3 -->
<g id="edge37" class="edge">
<title>node_5e463932&#45;&gt;node_c0a139a3</title>
<path fill="none" stroke="#56b4e9" stroke-width="2" d="M1061.26,-303C1061.26,-303 1086.71,-303 1086.71,-303"/>
<polygon fill="#56b4e9" stroke="#56b4e9" stroke-width="2" points="1086.71,-306.5 1096.71,-303 1086.71,-299.5 1086.71,-306.5"/>
</g>
<!-- node_5e463932&#45;&gt;node_5e463932 -->
<g id="edge38" class="edge">
<title>node_5e463932&#45;&gt;node_5e463932</title>
<path fill="none" stroke="#56b4e9" stroke-width="2" d="M884.98,-297C874.26,-297 867,-297 867,-297 867,-297 867,-272 867,-272 867,-272 1079,-272 1079,-272 1079,-272 1079,-291 1079,-291 1079,-291 1071.02,-291 1071.02,-291"/>
<polygon fill="#56b4e9" stroke="#56b4e9" stroke-width="2" points="1071.02,-287.5 1061.02,-291 1071.02,-294.5 1071.02,-287.5"/>
</g>
<!-- node_c1bd9e67&#45;&gt;node_41ee46b5 -->
<g id="edge39" class="edge">
<title>node_c1bd9e67&#45;&gt;node_41ee46b5</title>
<path fill="none" stroke="#cc79a7" stroke-width="2" d="M817.58,-234C822.7,-234 826,-234 826,-234 826,-234 826,-189 826,-189 826,-189 891.65,-189 891.65,-189"/>
<polygon fill="#cc79a7" stroke="#cc79a7" stroke-width="2" points="891.65,-192.5 901.65,-189 891.65,-185.5 891.65,-192.5"/>
</g>
<!-- node_c1bd9e67&#45;&gt;node_4a0ee85b -->
<g id="edge40" class="edge">
<title>node_c1bd9e67&#45;&gt;node_4a0ee85b</title>
<path fill="none" stroke="#cc79a7" stroke-width="2" d="M817.56,-243C817.56,-243 882.93,-243 882.93,-243"/>
<polygon fill="#cc79a7" stroke="#cc79a7" stroke-width="2" points="882.93,-246.5 892.93,-243 882.93,-239.5 882.93,-246.5"/>
</g>
<!-- node_c1bd9e67&#45;&gt;node_5e463932 -->
<g id="edge41" class="edge">
<title>node_c1bd9e67&#45;&gt;node_5e463932</title>
<path fill="none" stroke="#cc79a7" stroke-width="2" d="M817.81,-252C852.18,-252 889,-252 889,-252 889,-252 889,-268.96 889,-268.96"/>
<polygon fill="#cc79a7" stroke="#cc79a7" stroke-width="2" points="885.5,-268.96 889,-278.96 892.5,-268.96 885.5,-268.96"/>
</g>
<!-- node_84d7db4f&#45;&gt;node_283700ef -->
<g id="edge42" class="edge">
<title>node_84d7db4f&#45;&gt;node_283700ef</title>
<path fill="none" stroke="#cc79a7" stroke-width="2" d="M829,-369.12C829,-371.97 829,-374 829,-374 829,-374 880.9,-374 880.9,-374"/>
<polygon fill="#cc79a7" stroke="#cc79a7" stroke-width="2" points="880.9,-377.5 890.9,-374 880.9,-370.5 880.9,-377.5"/>
</g>
<!-- node_84d7db4f&#45;&gt;node_84d7db4f -->
<g id="edge44" class="edge">
<title>node_84d7db4f&#45;&gt;node_84d7db4f</title>
<path fill="none" stroke="#cc79a7" stroke-width="2" d="M686.72,-357C681.95,-357 679,-357 679,-357 679,-357 679,-379 679,-379 679,-379 843,-379 843,-379 843,-379 843,-351 843,-351 843,-351 841.91,-351 841.91,-351"/>
<polygon fill="#cc79a7" stroke="#cc79a7" stroke-width="2" points="842.08,-347.5 832.08,-351 842.08,-354.5 842.08,-347.5"/>
</g>
<!-- node_184d7984&#45;&gt;node_5d6c382f -->
<g id="edge45" class="edge">
<title>node_184d7984&#45;&gt;node_5d6c382f</title>
<path fill="none" stroke="#f0e442" stroke-width="2" d="M616.76,-129C616.76,-129 677.87,-129 677.87,-129"/>
<polygon fill="#f0e442" stroke="#f0e442" stroke-width="2" points="677.87,-132.5 687.87,-129 677.87,-125.5 677.87,-132.5"/>
</g>
<!-- node_31d5da4f -->
<g id="node36" class="node">
<title>node_31d5da4f</title>
<path fill="#cccccc" stroke="black" d="M804,-61C804,-61 715,-61 715,-61 709,-61 703,-55 703,-49 703,-49 703,-37 703,-37 703,-31 709,-25 715,-25 715,-25 804,-25 804,-25 810,-25 816,-31 816,-37 816,-37 816,-49 816,-49 816,-55 810,-61 804,-61"/>
<text text-anchor="middle" x="759.5" y="-39.3" font-family="Times,serif" font-size="14.00">66: getSelection()</text>
</g>
<!-- node_184d7984&#45;&gt;node_31d5da4f -->
<g id="edge46" class="edge">
<title>node_184d7984&#45;&gt;node_31d5da4f</title>
<path fill="none" stroke="#f0e442" stroke-width="2" d="M549,-116.83C549,-89.44 549,-40.75 549,-40.75 549,-40.75 692.81,-40.75 692.81,-40.75"/>
<polygon fill="#f0e442" stroke="#f0e442" stroke-width="2" points="692.81,-44.25 702.81,-40.75 692.81,-37.25 692.81,-44.25"/>
</g>
<!-- node_91375df4 -->
<g id="node31" class="node">
<title>node_91375df4</title>
<path fill="#6db33f" stroke="black" d="M825.5,-677C825.5,-677 693.5,-677 693.5,-677 687.5,-677 681.5,-671 681.5,-665 681.5,-665 681.5,-653 681.5,-653 681.5,-647 687.5,-641 693.5,-641 693.5,-641 825.5,-641 825.5,-641 831.5,-641 837.5,-647 837.5,-653 837.5,-653 837.5,-665 837.5,-665 837.5,-671 831.5,-677 825.5,-677"/>
<text text-anchor="middle" x="759.5" y="-655.3" font-family="Times,serif" font-size="14.00">554: validArchiConcept()</text>
</g>
<!-- node_5e81a326&#45;&gt;node_91375df4 -->
<g id="edge47" class="edge">
<title>node_5e81a326&#45;&gt;node_91375df4</title>
<path fill="none" stroke="#d55e00" stroke-width="2" d="M634.06,-598.33C664.3,-598.33 691,-598.33 691,-598.33 691,-598.33 691,-630.8 691,-630.8"/>
<polygon fill="#d55e00" stroke="#d55e00" stroke-width="2" points="687.5,-630.8 691,-640.8 694.5,-630.8 687.5,-630.8"/>
</g>
<!-- node_d3804a09 -->
<g id="node32" class="node">
<title>node_d3804a09</title>
<path fill="#966f33" stroke="black" d="M163,-301C163,-301 104,-301 104,-301 98,-301 92,-295 92,-289 92,-289 92,-277 92,-277 92,-271 98,-265 104,-265 104,-265 163,-265 163,-265 169,-265 175,-271 175,-277 175,-277 175,-289 175,-289 175,-295 169,-301 163,-301"/>
<text text-anchor="middle" x="133.5" y="-279.3" font-family="Times,serif" font-size="14.00">0: (global)()</text>
</g>
<!-- node_d3804a09&#45;&gt;node_927b8bc4 -->
<g id="edge51" class="edge">
<title>node_d3804a09&#45;&gt;node_927b8bc4</title>
<path fill="none" stroke="#e69f00" stroke-width="2" d="M148,-301.32C148,-309.79 148,-318 148,-318 148,-318 292.88,-318 292.88,-318"/>
<polygon fill="#e69f00" stroke="#e69f00" stroke-width="2" points="292.88,-321.5 302.88,-318 292.88,-314.5 292.88,-321.5"/>
</g>
<!-- node_651ddc05 -->
<g id="node33" class="node">
<title>node_651ddc05</title>
<path fill="#966f33" stroke="black" d="M163,-218C163,-218 104,-218 104,-218 98,-218 92,-212 92,-206 92,-206 92,-194 92,-194 92,-188 98,-182 104,-182 104,-182 163,-182 163,-182 169,-182 175,-188 175,-194 175,-194 175,-206 175,-206 175,-212 169,-218 163,-218"/>
<text text-anchor="middle" x="133.5" y="-196.3" font-family="Times,serif" font-size="14.00">0: (global)()</text>
</g>
<!-- node_651ddc05&#45;&gt;node_927b8bc4 -->
<g id="edge52" class="edge">
<title>node_651ddc05&#45;&gt;node_927b8bc4</title>
<path fill="none" stroke="#0072b2" stroke-width="2" d="M175.23,-212.5C232.38,-212.5 328,-212.5 328,-212.5 328,-212.5 328,-295.59 328,-295.59"/>
<polygon fill="#0072b2" stroke="#0072b2" stroke-width="2" points="324.5,-295.59 328,-305.59 331.5,-295.59 324.5,-295.59"/>
</g>
<!-- node_89595b32 -->
<g id="node34" class="node">
<title>node_89595b32</title>
<path fill="#cccccc" stroke="black" d="M1012,-52C1012,-52 934,-52 934,-52 928,-52 922,-46 922,-40 922,-40 922,-28 922,-28 922,-22 928,-16 934,-16 934,-16 1012,-16 1012,-16 1018,-16 1024,-22 1024,-28 1024,-28 1024,-40 1024,-40 1024,-46 1018,-52 1012,-52"/>
<text text-anchor="middle" x="973" y="-30.3" font-family="Times,serif" font-size="14.00">85: addObject()</text>
</g>
<!-- node_89595b32&#45;&gt;node_89595b32 -->
<g id="edge53" class="edge">
<title>node_89595b32&#45;&gt;node_89595b32</title>
<path fill="none" stroke="#56b4e9" stroke-width="2" d="M921.8,-43C915.93,-43 912,-43 912,-43 912,-43 912,-56.5 912,-56.5 912,-56.5 1034,-56.5 1034,-56.5 1034,-56.5 1034,-40 1034,-40 1034,-40 1033.02,-40 1033.02,-40"/>
<polygon fill="#56b4e9" stroke="#56b4e9" stroke-width="2" points="1034.2,-36.5 1024.2,-40 1034.2,-43.5 1034.2,-36.5"/>
</g>
<!-- node_3c47912d -->
<g id="node35" class="node">
<title>node_3c47912d</title>
<path fill="#6db33f" stroke="black" d="M1231,-52C1231,-52 1160,-52 1160,-52 1154,-52 1148,-46 1148,-40 1148,-40 1148,-28 1148,-28 1148,-22 1154,-16 1160,-16 1160,-16 1231,-16 1231,-16 1237,-16 1243,-22 1243,-28 1243,-28 1243,-40 1243,-40 1243,-46 1237,-52 1231,-52"/>
<text text-anchor="middle" x="1195.5" y="-30.3" font-family="Times,serif" font-size="14.00">167: concept()</text>
</g>
<!-- node_89595b32&#45;&gt;node_3c47912d -->
<g id="edge54" class="edge">
<title>node_89595b32&#45;&gt;node_3c47912d</title>
<path fill="none" stroke="#56b4e9" stroke-width="2" d="M1024.05,-28C1024.05,-28 1137.74,-28 1137.74,-28"/>
<polygon fill="#56b4e9" stroke="#56b4e9" stroke-width="2" points="1137.74,-31.5 1147.74,-28 1137.74,-24.5 1137.74,-31.5"/>
</g>
<!-- node_31d5da4f&#45;&gt;node_89595b32 -->
<g id="edge55" class="edge">
<title>node_31d5da4f&#45;&gt;node_89595b32</title>
<path fill="none" stroke="#cc79a7" stroke-width="2" d="M816.15,-34C816.15,-34 911.93,-34 911.93,-34"/>
<polygon fill="#cc79a7" stroke="#cc79a7" stroke-width="2" points="911.93,-37.5 921.93,-34 911.93,-30.5 911.93,-37.5"/>
</g>
</g>
</svg>
